<?xml version="1.0" encoding="UTF-8"?>
<svg xmlns="http://www.w3.org/2000/svg" xmlns:xlink="http://www.w3.org/1999/xlink" width="211px" height="60px" viewBox="0 0 210 60" version="1.1">
<defs>
<clipPath id="clip1">
  <path d="M 65.710938 8.308594 L 210 8.308594 L 210 28.238281 L 65.710938 28.238281 Z M 65.710938 8.308594 "/>
</clipPath>
<clipPath id="clip2">
  <path d="M 65.710938 32.941406 L 202.859375 32.941406 L 202.859375 51.800781 L 65.710938 51.800781 Z M 65.710938 32.941406 "/>
</clipPath>
<clipPath id="clip3">
  <path d="M 0.59375 0.121094 L 61.019531 0.121094 L 61.019531 60 L 0.59375 60 Z M 0.59375 0.121094 "/>
</clipPath>
</defs>
<g id="surface1">
<g clip-path="url(#clip1)" clip-rule="nonzero">
<path style=" stroke:none;fill-rule:nonzero;fill:rgb(62.352941%,47.45098%,25.490196%);fill-opacity:1;" d="M 76.078125 8.964844 L 78.242188 8.347656 L 78.242188 23.253906 L 76.078125 23.253906 L 76.078125 15.761719 L 71.78125 15.761719 L 71.78125 23.253906 L 69.617188 23.253906 L 69.617188 9.363281 C 68.886719 9.65625 68.3125 10.125 67.898438 10.765625 C 67.480469 11.414062 67.269531 12.179688 67.269531 13.070312 C 67.269531 13.535156 67.300781 13.90625 67.363281 14.1875 C 67.417969 14.464844 67.496094 14.691406 67.589844 14.863281 C 67.679688 15.035156 67.78125 15.164062 67.886719 15.242188 C 67.992188 15.324219 68.089844 15.382812 68.183594 15.421875 C 67.839844 15.421875 67.519531 15.378906 67.21875 15.289062 C 66.921875 15.207031 66.664062 15.0625 66.445312 14.863281 C 66.226562 14.664062 66.050781 14.410156 65.917969 14.09375 C 65.785156 13.785156 65.71875 13.402344 65.71875 12.949219 C 65.71875 12.328125 65.863281 11.730469 66.15625 11.164062 C 66.449219 10.601562 66.839844 10.109375 67.328125 9.683594 C 67.820312 9.257812 68.378906 8.921875 69.011719 8.675781 C 69.640625 8.429688 70.292969 8.308594 70.96875 8.308594 C 71.113281 8.308594 71.253906 8.308594 71.386719 8.316406 C 71.515625 8.324219 71.648438 8.335938 71.78125 8.347656 L 71.78125 14.585938 L 76.078125 14.585938 Z M 85.421875 13.289062 L 87.40625 13.289062 L 87.40625 20.066406 C 87.40625 20.199219 87.414062 20.363281 87.429688 20.5625 C 87.441406 20.761719 87.476562 20.957031 87.535156 21.148438 C 87.597656 21.34375 87.6875 21.511719 87.804688 21.648438 C 87.925781 21.789062 88.089844 21.859375 88.300781 21.859375 C 88.953125 21.859375 89.429688 21.136719 89.734375 19.6875 L 90.46875 19.6875 C 90.324219 20.523438 90.136719 21.183594 89.914062 21.667969 C 89.6875 22.15625 89.449219 22.523438 89.195312 22.777344 C 88.945312 23.027344 88.6875 23.191406 88.421875 23.265625 C 88.15625 23.339844 87.917969 23.375 87.707031 23.375 C 87.402344 23.375 87.140625 23.320312 86.917969 23.214844 C 86.703125 23.109375 86.515625 22.96875 86.363281 22.796875 C 86.210938 22.625 86.089844 22.425781 85.996094 22.199219 C 85.902344 21.972656 85.832031 21.734375 85.777344 21.480469 C 85.578125 22 85.257812 22.445312 84.8125 22.816406 C 84.367188 23.1875 83.828125 23.375 83.195312 23.375 C 82.796875 23.375 82.394531 23.292969 81.988281 23.136719 C 81.585938 22.976562 81.222656 22.714844 80.894531 22.351562 C 80.570312 21.984375 80.308594 21.511719 80.101562 20.929688 C 79.894531 20.355469 79.792969 19.648438 79.792969 18.808594 C 79.792969 18.199219 79.863281 17.5625 80 16.898438 C 80.140625 16.234375 80.363281 15.628906 80.667969 15.082031 C 80.972656 14.539062 81.363281 14.085938 81.839844 13.726562 C 82.320312 13.371094 82.894531 13.191406 83.570312 13.191406 C 83.730469 13.191406 83.898438 13.207031 84.078125 13.238281 C 84.257812 13.273438 84.429688 13.328125 84.59375 13.410156 C 84.761719 13.488281 84.917969 13.597656 85.0625 13.734375 C 85.207031 13.878906 85.328125 14.046875 85.421875 14.246094 Z M 83.691406 21.859375 C 83.890625 21.859375 84.089844 21.800781 84.292969 21.6875 C 84.5 21.578125 84.6875 21.421875 84.851562 21.230469 C 85.019531 21.039062 85.15625 20.808594 85.261719 20.542969 C 85.367188 20.277344 85.421875 19.992188 85.421875 19.6875 L 85.421875 15.144531 C 85.328125 14.929688 85.183594 14.734375 84.992188 14.554688 C 84.800781 14.375 84.550781 14.285156 84.246094 14.285156 C 83.824219 14.285156 83.457031 14.429688 83.152344 14.710938 C 82.847656 15 82.605469 15.359375 82.417969 15.789062 C 82.234375 16.222656 82.097656 16.695312 82.007812 17.203125 C 81.925781 17.71875 81.882812 18.207031 81.882812 18.671875 C 81.882812 19.8125 82.035156 20.628906 82.347656 21.121094 C 82.660156 21.613281 83.105469 21.859375 83.691406 21.859375 Z M 89.734375 9.582031 L 91.722656 9.304688 L 91.722656 20.066406 C 91.722656 20.199219 91.730469 20.363281 91.742188 20.5625 C 91.753906 20.761719 91.789062 20.957031 91.847656 21.148438 C 91.910156 21.34375 92 21.511719 92.121094 21.648438 C 92.238281 21.789062 92.40625 21.859375 92.617188 21.859375 C 93.265625 21.859375 93.742188 21.136719 94.046875 19.6875 L 94.785156 19.6875 C 94.636719 20.523438 94.453125 21.183594 94.226562 21.667969 C 94 22.15625 93.761719 22.523438 93.511719 22.777344 C 93.257812 23.027344 93 23.191406 92.734375 23.265625 C 92.46875 23.339844 92.230469 23.375 92.019531 23.375 C 91.554688 23.375 91.179688 23.285156 90.886719 23.101562 C 90.59375 22.925781 90.363281 22.695312 90.191406 22.417969 C 90.019531 22.136719 89.898438 21.828125 89.832031 21.480469 C 89.765625 21.136719 89.734375 20.804688 89.734375 20.484375 Z M 94.023438 9.582031 L 96.011719 9.304688 L 96.011719 20.066406 C 96.011719 20.199219 96.019531 20.363281 96.03125 20.5625 C 96.046875 20.761719 96.082031 20.957031 96.144531 21.148438 C 96.203125 21.34375 96.289062 21.511719 96.410156 21.648438 C 96.527344 21.789062 96.695312 21.859375 96.90625 21.859375 C 97.554688 21.859375 98.03125 21.136719 98.335938 19.6875 L 99.074219 19.6875 C 98.925781 20.523438 98.742188 21.183594 98.515625 21.667969 C 98.292969 22.15625 98.054688 22.523438 97.800781 22.777344 C 97.550781 23.027344 97.289062 23.191406 97.027344 23.265625 C 96.761719 23.339844 96.523438 23.375 96.308594 23.375 C 95.847656 23.375 95.46875 23.285156 95.175781 23.101562 C 94.886719 22.925781 94.652344 22.695312 94.480469 22.417969 C 94.308594 22.136719 94.191406 21.828125 94.125 21.480469 C 94.058594 21.136719 94.023438 20.804688 94.023438 20.484375 Z M 101.9375 13.191406 C 102.453125 13.191406 102.898438 13.269531 103.269531 13.429688 C 103.640625 13.589844 103.945312 13.8125 104.183594 14.09375 C 104.421875 14.382812 104.609375 14.71875 104.75 15.101562 C 104.890625 15.488281 104.992188 15.902344 105.058594 16.339844 L 105.175781 16.339844 C 105.734375 16.339844 106.242188 16.226562 106.707031 16 C 107.171875 15.773438 107.570312 15.488281 107.898438 15.144531 L 108.199219 15.679688 C 107.933594 16.105469 107.511719 16.457031 106.9375 16.738281 C 106.359375 17.015625 105.765625 17.210938 105.15625 17.316406 C 105.15625 17.449219 105.160156 17.582031 105.167969 17.714844 C 105.171875 17.847656 105.175781 17.988281 105.175781 18.132812 C 105.175781 19.765625 104.878906 21.050781 104.28125 21.980469 C 103.683594 22.910156 102.851562 23.375 101.777344 23.375 C 101.339844 23.375 100.898438 23.292969 100.457031 23.136719 C 100.011719 22.976562 99.609375 22.710938 99.253906 22.335938 C 98.894531 21.964844 98.605469 21.488281 98.390625 20.902344 C 98.167969 20.316406 98.058594 19.59375 98.058594 18.730469 C 98.058594 18.144531 98.125 17.527344 98.25 16.878906 C 98.375 16.226562 98.585938 15.628906 98.886719 15.082031 C 99.183594 14.539062 99.582031 14.085938 100.078125 13.726562 C 100.574219 13.371094 101.195312 13.191406 101.9375 13.191406 Z M 102.136719 21.859375 C 102.835938 21.859375 103.355469 21.511719 103.683594 20.8125 C 104.015625 20.113281 104.183594 19.128906 104.183594 17.855469 C 104.183594 17.773438 104.183594 17.695312 104.183594 17.613281 C 104.183594 17.535156 104.175781 17.453125 104.164062 17.375 C 103.777344 17.347656 103.503906 17.261719 103.339844 17.117188 C 103.171875 16.96875 103.089844 16.722656 103.089844 16.378906 C 103.089844 16.074219 103.15625 15.855469 103.289062 15.730469 C 103.421875 15.605469 103.621094 15.535156 103.882812 15.523438 C 103.726562 15.058594 103.523438 14.734375 103.28125 14.554688 C 103.035156 14.375 102.757812 14.285156 102.453125 14.285156 C 102.042969 14.285156 101.695312 14.421875 101.410156 14.691406 C 101.125 14.964844 100.894531 15.316406 100.714844 15.742188 C 100.535156 16.167969 100.40625 16.632812 100.324219 17.144531 C 100.246094 17.65625 100.207031 18.160156 100.207031 18.652344 C 100.207031 19.300781 100.265625 19.832031 100.386719 20.246094 C 100.503906 20.65625 100.65625 20.984375 100.84375 21.222656 C 101.027344 21.460938 101.234375 21.628906 101.457031 21.71875 C 101.683594 21.8125 101.910156 21.859375 102.136719 21.859375 Z M 106.628906 13.289062 L 108.617188 13.289062 L 108.617188 20.066406 C 108.617188 20.71875 108.726562 21.179688 108.953125 21.449219 C 109.179688 21.722656 109.464844 21.859375 109.808594 21.859375 C 109.992188 21.859375 110.179688 21.808594 110.363281 21.707031 C 110.550781 21.609375 110.714844 21.46875 110.863281 21.28125 C 111.007812 21.09375 111.128906 20.871094 111.21875 20.605469 C 111.3125 20.339844 111.359375 20.03125 111.359375 19.6875 L 111.359375 13.289062 L 113.347656 13.289062 L 113.347656 20.066406 C 113.347656 20.292969 113.359375 20.511719 113.386719 20.722656 C 113.414062 20.9375 113.46875 21.125 113.554688 21.289062 C 113.640625 21.457031 113.761719 21.59375 113.910156 21.699219 C 114.066406 21.804688 114.261719 21.859375 114.5 21.859375 C 114.910156 21.859375 115.253906 21.710938 115.535156 21.410156 C 115.8125 21.113281 116.039062 20.722656 116.21875 20.246094 C 116.398438 19.765625 116.527344 19.230469 116.605469 18.640625 C 116.6875 18.050781 116.726562 17.460938 116.726562 16.878906 C 116.726562 16.503906 116.714844 16.136719 116.6875 15.769531 C 116.660156 15.40625 116.613281 15.078125 116.546875 14.785156 C 116.480469 14.851562 116.394531 14.894531 116.289062 14.910156 C 116.183594 14.933594 116.097656 14.945312 116.03125 14.945312 C 115.710938 14.945312 115.472656 14.832031 115.316406 14.605469 C 115.15625 14.378906 115.078125 14.140625 115.078125 13.886719 C 115.078125 13.621094 115.164062 13.386719 115.335938 13.179688 C 115.507812 12.972656 115.757812 12.871094 116.089844 12.871094 C 116.316406 12.871094 116.53125 12.9375 116.734375 13.070312 C 116.941406 13.203125 117.121094 13.410156 117.269531 13.695312 C 117.425781 13.984375 117.542969 14.359375 117.628906 14.824219 C 117.714844 15.289062 117.761719 15.859375 117.761719 16.539062 C 117.761719 17.296875 117.695312 18.074219 117.570312 18.878906 C 117.445312 19.683594 117.238281 20.417969 116.945312 21.082031 C 116.652344 21.746094 116.277344 22.292969 115.8125 22.722656 C 115.347656 23.15625 114.773438 23.375 114.082031 23.375 C 113.566406 23.375 113.074219 23.242188 112.613281 22.976562 C 112.148438 22.710938 111.804688 22.324219 111.578125 21.820312 C 111.3125 22.363281 110.992188 22.757812 110.613281 23.003906 C 110.234375 23.25 109.839844 23.375 109.429688 23.375 C 109.046875 23.375 108.683594 23.320312 108.335938 23.214844 C 107.992188 23.109375 107.695312 22.933594 107.441406 22.683594 C 107.191406 22.441406 106.992188 22.121094 106.847656 21.726562 C 106.699219 21.335938 106.628906 20.855469 106.628906 20.285156 Z M 125.234375 15.78125 C 125.234375 16.710938 124.851562 17.488281 124.089844 18.113281 C 123.328125 18.738281 122.273438 19.121094 120.921875 19.269531 C 120.972656 19.800781 121.070312 20.230469 121.207031 20.5625 C 121.347656 20.894531 121.515625 21.15625 121.714844 21.347656 C 121.914062 21.542969 122.144531 21.675781 122.398438 21.746094 C 122.660156 21.824219 122.929688 21.859375 123.207031 21.859375 C 123.84375 21.859375 124.441406 21.695312 124.996094 21.359375 C 125.554688 21.027344 126.003906 20.472656 126.347656 19.6875 L 126.984375 19.6875 C 126.8125 20.179688 126.574219 20.644531 126.269531 21.089844 C 125.964844 21.535156 125.605469 21.929688 125.195312 22.265625 C 124.785156 22.605469 124.339844 22.875 123.863281 23.074219 C 123.386719 23.273438 122.894531 23.375 122.390625 23.375 C 121.929688 23.375 121.480469 23.292969 121.046875 23.136719 C 120.617188 22.976562 120.238281 22.714844 119.90625 22.351562 C 119.574219 21.984375 119.308594 21.507812 119.101562 20.921875 C 118.894531 20.339844 118.792969 19.621094 118.792969 18.769531 C 118.792969 18.210938 118.855469 17.609375 118.980469 16.957031 C 119.109375 16.304688 119.320312 15.703125 119.617188 15.144531 C 119.917969 14.585938 120.308594 14.121094 120.789062 13.75 C 121.273438 13.375 121.875 13.191406 122.589844 13.191406 C 122.921875 13.191406 123.242188 13.226562 123.554688 13.296875 C 123.867188 13.371094 124.148438 13.503906 124.398438 13.695312 C 124.652344 13.890625 124.851562 14.152344 125.003906 14.484375 C 125.15625 14.816406 125.234375 15.25 125.234375 15.78125 Z M 120.902344 18.492188 C 121.84375 18.34375 122.585938 18.011719 123.136719 17.496094 C 123.6875 16.976562 123.960938 16.339844 123.960938 15.582031 C 123.960938 15.078125 123.875 14.714844 123.703125 14.492188 C 123.53125 14.277344 123.285156 14.167969 122.96875 14.167969 C 122.625 14.167969 122.320312 14.300781 122.0625 14.566406 C 121.804688 14.832031 121.589844 15.171875 121.417969 15.589844 C 121.246094 16.007812 121.117188 16.472656 121.027344 16.984375 C 120.945312 17.496094 120.902344 18 120.902344 18.492188 Z M 132.546875 15.78125 C 132.546875 16.710938 132.167969 17.488281 131.40625 18.113281 C 130.640625 18.738281 129.585938 19.121094 128.234375 19.269531 C 128.285156 19.800781 128.382812 20.230469 128.523438 20.5625 C 128.660156 20.894531 128.828125 21.15625 129.027344 21.347656 C 129.226562 21.542969 129.457031 21.675781 129.714844 21.746094 C 129.972656 21.824219 130.242188 21.859375 130.519531 21.859375 C 131.15625 21.859375 131.75 21.695312 132.308594 21.359375 C 132.863281 21.027344 133.316406 20.472656 133.660156 19.6875 L 134.296875 19.6875 C 134.125 20.179688 133.886719 20.644531 133.582031 21.089844 C 133.277344 21.535156 132.917969 21.929688 132.507812 22.265625 C 132.097656 22.605469 131.652344 22.875 131.175781 23.074219 C 130.699219 23.273438 130.207031 23.375 129.703125 23.375 C 129.238281 23.375 128.792969 23.292969 128.363281 23.136719 C 127.933594 22.976562 127.550781 22.714844 127.21875 22.351562 C 126.886719 21.984375 126.621094 21.507812 126.414062 20.921875 C 126.210938 20.339844 126.105469 19.621094 126.105469 18.769531 C 126.105469 18.210938 126.167969 17.609375 126.296875 16.957031 C 126.421875 16.304688 126.632812 15.703125 126.933594 15.144531 C 127.230469 14.585938 127.621094 14.121094 128.105469 13.75 C 128.589844 13.375 129.1875 13.191406 129.902344 13.191406 C 130.234375 13.191406 130.554688 13.226562 130.867188 13.296875 C 131.179688 13.371094 131.460938 13.503906 131.710938 13.695312 C 131.964844 13.890625 132.167969 14.152344 132.320312 14.484375 C 132.472656 14.816406 132.546875 15.25 132.546875 15.78125 Z M 128.214844 18.492188 C 129.152344 18.34375 129.898438 18.011719 130.453125 17.496094 C 131 16.976562 131.273438 16.339844 131.273438 15.582031 C 131.273438 15.078125 131.1875 14.714844 131.015625 14.492188 C 130.84375 14.277344 130.597656 14.167969 130.28125 14.167969 C 129.9375 14.167969 129.636719 14.300781 129.378906 14.566406 C 129.117188 14.832031 128.902344 15.171875 128.730469 15.589844 C 128.558594 16.007812 128.429688 16.472656 128.34375 16.984375 C 128.257812 17.496094 128.214844 18 128.214844 18.492188 Z M 133.640625 13.289062 L 135.628906 13.289062 L 135.628906 14.804688 C 135.828125 14.445312 136.03125 14.15625 136.238281 13.933594 C 136.441406 13.71875 136.648438 13.554688 136.859375 13.449219 C 137.074219 13.34375 137.277344 13.273438 137.46875 13.238281 C 137.660156 13.207031 137.839844 13.191406 138.015625 13.191406 C 138.609375 13.191406 139.089844 13.304688 139.457031 13.527344 C 139.820312 13.753906 140.09375 14.042969 140.28125 14.394531 C 140.464844 14.746094 140.589844 15.132812 140.648438 15.550781 C 140.707031 15.96875 140.738281 16.371094 140.738281 16.757812 C 140.738281 16.996094 140.730469 17.257812 140.71875 17.542969 C 140.703125 17.828125 140.691406 18.121094 140.675781 18.417969 C 140.664062 18.71875 140.652344 19.019531 140.636719 19.316406 C 140.625 19.617188 140.617188 19.894531 140.617188 20.144531 C 140.617188 20.25 140.625 20.402344 140.636719 20.59375 C 140.652344 20.785156 140.683594 20.976562 140.738281 21.160156 C 140.789062 21.347656 140.875 21.511719 140.996094 21.648438 C 141.113281 21.789062 141.289062 21.859375 141.511719 21.859375 C 141.816406 21.859375 142.09375 21.6875 142.339844 21.339844 C 142.582031 20.996094 142.785156 20.445312 142.945312 19.6875 L 143.679688 19.6875 C 143.535156 20.523438 143.347656 21.183594 143.121094 21.667969 C 142.898438 22.15625 142.660156 22.523438 142.40625 22.777344 C 142.15625 23.027344 141.902344 23.191406 141.652344 23.265625 C 141.398438 23.339844 141.167969 23.375 140.957031 23.375 C 140.53125 23.375 140.175781 23.289062 139.882812 23.121094 C 139.589844 22.957031 139.351562 22.738281 139.167969 22.457031 C 138.980469 22.179688 138.847656 21.851562 138.761719 21.480469 C 138.671875 21.109375 138.628906 20.722656 138.628906 20.324219 C 138.628906 20.207031 138.632812 19.980469 138.640625 19.65625 C 138.648438 19.332031 138.652344 18.984375 138.660156 18.609375 C 138.667969 18.238281 138.671875 17.886719 138.683594 17.554688 C 138.6875 17.222656 138.691406 16.988281 138.691406 16.855469 C 138.691406 16.433594 138.65625 16.078125 138.589844 15.800781 C 138.523438 15.523438 138.429688 15.300781 138.3125 15.144531 C 138.191406 14.984375 138.058594 14.871094 137.90625 14.804688 C 137.753906 14.738281 137.589844 14.703125 137.417969 14.703125 C 137.007812 14.703125 136.652344 14.871094 136.355469 15.203125 C 136.054688 15.535156 135.8125 16.09375 135.628906 16.878906 L 135.628906 23.253906 L 133.640625 23.253906 Z M 151.09375 10.480469 L 153.242188 10.179688 L 153.242188 21.699219 C 153.492188 21.886719 153.734375 22.019531 153.964844 22.097656 C 154.199219 22.179688 154.421875 22.21875 154.632812 22.21875 C 155.148438 22.21875 155.582031 22.027344 155.933594 21.648438 C 156.285156 21.269531 156.574219 20.78125 156.800781 20.171875 C 157.023438 19.570312 157.1875 18.898438 157.285156 18.152344 C 157.386719 17.410156 157.4375 16.679688 157.4375 15.960938 C 157.4375 14.726562 157.351562 13.667969 157.175781 12.792969 C 157.003906 11.914062 156.726562 11.195312 156.34375 10.640625 C 155.957031 10.082031 155.460938 9.671875 154.851562 9.410156 C 154.242188 9.152344 153.507812 9.023438 152.644531 9.023438 C 152.046875 9.023438 151.480469 9.117188 150.933594 9.304688 C 150.390625 9.488281 149.914062 9.757812 149.503906 10.109375 C 149.09375 10.460938 148.765625 10.894531 148.519531 11.40625 C 148.273438 11.917969 148.152344 12.5 148.152344 13.148438 C 148.152344 13.535156 148.195312 13.859375 148.28125 14.125 C 148.367188 14.390625 148.464844 14.613281 148.578125 14.785156 C 148.691406 14.957031 148.8125 15.09375 148.9375 15.191406 C 149.0625 15.292969 149.167969 15.367188 149.246094 15.421875 C 148.4375 15.421875 147.800781 15.234375 147.335938 14.863281 C 146.875 14.492188 146.640625 13.867188 146.640625 12.992188 C 146.640625 12.378906 146.800781 11.789062 147.117188 11.21875 C 147.4375 10.644531 147.875 10.148438 148.4375 9.722656 C 149.003906 9.296875 149.664062 8.957031 150.425781 8.699219 C 151.191406 8.4375 152.023438 8.308594 152.921875 8.308594 C 154.195312 8.308594 155.269531 8.523438 156.144531 8.953125 C 157.019531 9.386719 157.726562 9.957031 158.269531 10.667969 C 158.816406 11.378906 159.207031 12.195312 159.445312 13.109375 C 159.683594 14.027344 159.800781 14.96875 159.800781 15.941406 C 159.800781 16.882812 159.703125 17.808594 159.511719 18.710938 C 159.320312 19.613281 159.054688 20.421875 158.714844 21.128906 C 158.378906 21.84375 157.980469 22.417969 157.515625 22.855469 C 157.050781 23.292969 156.542969 23.511719 155.984375 23.511719 C 155.585938 23.511719 155.164062 23.421875 154.710938 23.234375 C 154.261719 23.046875 153.773438 22.757812 153.242188 22.359375 L 153.242188 23.253906 L 151.09375 23.253906 Z M 161.230469 13.289062 L 163.21875 13.289062 L 163.21875 20.066406 C 163.21875 20.199219 163.222656 20.363281 163.238281 20.5625 C 163.25 20.761719 163.289062 20.957031 163.347656 21.148438 C 163.40625 21.34375 163.496094 21.511719 163.613281 21.648438 C 163.734375 21.789062 163.898438 21.859375 164.113281 21.859375 C 164.761719 21.859375 165.238281 21.136719 165.542969 19.6875 L 166.277344 19.6875 C 166.132812 20.523438 165.949219 21.183594 165.722656 21.667969 C 165.496094 22.15625 165.257812 22.523438 165.007812 22.777344 C 164.753906 23.027344 164.496094 23.191406 164.230469 23.265625 C 163.964844 23.339844 163.726562 23.375 163.515625 23.375 C 163.050781 23.375 162.671875 23.285156 162.382812 23.101562 C 162.089844 22.925781 161.859375 22.695312 161.6875 22.417969 C 161.515625 22.136719 161.394531 21.828125 161.328125 21.480469 C 161.261719 21.136719 161.230469 20.804688 161.230469 20.484375 Z M 160.871094 10.421875 C 160.871094 10.0625 160.996094 9.75 161.25 9.484375 C 161.5 9.21875 161.8125 9.085938 162.183594 9.085938 C 162.542969 9.085938 162.851562 9.21875 163.117188 9.484375 C 163.382812 9.75 163.515625 10.0625 163.515625 10.421875 C 163.515625 10.792969 163.382812 11.105469 163.117188 11.355469 C 162.851562 11.609375 162.542969 11.734375 162.183594 11.734375 C 161.8125 11.734375 161.5 11.609375 161.25 11.355469 C 160.996094 11.105469 160.871094 10.792969 160.871094 10.421875 Z M 172.34375 19.6875 L 173.175781 19.6875 C 172.792969 20.21875 172.398438 20.660156 171.996094 21.011719 C 171.589844 21.363281 171.195312 21.671875 170.8125 21.9375 C 170.664062 22.203125 170.480469 22.425781 170.253906 22.605469 C 170.027344 22.785156 169.789062 22.933594 169.53125 23.042969 C 169.269531 23.15625 169.011719 23.242188 168.753906 23.292969 C 168.496094 23.347656 168.261719 23.375 168.046875 23.375 C 167.464844 23.375 166.984375 23.28125 166.609375 23.09375 C 166.230469 22.910156 165.925781 22.671875 165.703125 22.386719 C 165.476562 22.101562 165.316406 21.78125 165.226562 21.429688 C 165.132812 21.078125 165.085938 20.742188 165.085938 20.425781 C 165.085938 20.078125 165.15625 19.777344 165.296875 19.515625 C 165.433594 19.257812 165.601562 19.074219 165.800781 18.96875 C 166.144531 17.972656 166.484375 16.984375 166.816406 16.007812 C 167.148438 15.03125 167.367188 14.054688 167.472656 13.070312 L 169.480469 12.671875 C 169.796875 13.933594 170.058594 14.964844 170.265625 15.761719 C 170.46875 16.558594 170.636719 17.230469 170.761719 17.78125 C 170.886719 18.335938 170.980469 18.820312 171.042969 19.238281 C 171.101562 19.65625 171.128906 20.117188 171.128906 20.625 C 171.355469 20.476562 171.566406 20.320312 171.765625 20.152344 C 171.964844 19.988281 172.15625 19.832031 172.34375 19.6875 Z M 169.023438 20.484375 C 169.023438 20.074219 169 19.707031 168.953125 19.386719 C 168.90625 19.070312 168.835938 18.71875 168.742188 18.332031 C 168.652344 17.945312 168.535156 17.476562 168.398438 16.925781 C 168.257812 16.375 168.09375 15.667969 167.910156 14.804688 C 167.828125 15.546875 167.667969 16.257812 167.421875 16.9375 C 167.175781 17.613281 166.953125 18.3125 166.753906 19.03125 C 166.875 19.109375 166.976562 19.21875 167.066406 19.355469 C 167.152344 19.496094 167.191406 19.679688 167.191406 19.90625 C 167.191406 20.160156 167.125 20.351562 166.996094 20.484375 C 166.863281 20.617188 166.714844 20.683594 166.558594 20.683594 C 166.34375 20.683594 166.164062 20.589844 166.019531 20.40625 C 166.125 20.871094 166.3125 21.230469 166.578125 21.492188 C 166.84375 21.75 167.191406 21.878906 167.628906 21.878906 C 168.054688 21.878906 168.390625 21.769531 168.644531 21.546875 C 168.894531 21.332031 169.023438 20.976562 169.023438 20.484375 Z M 177.667969 13.289062 L 179.65625 13.289062 L 179.65625 22.835938 C 179.988281 22.730469 180.28125 22.609375 180.539062 22.476562 C 180.800781 22.34375 181.023438 22.164062 181.214844 21.9375 C 181.410156 21.714844 181.570312 21.421875 181.691406 21.0625 C 181.820312 20.703125 181.917969 20.246094 181.984375 19.6875 L 182.71875 19.6875 C 182.613281 20.390625 182.476562 20.964844 182.308594 21.410156 C 182.144531 21.855469 181.941406 22.214844 181.691406 22.484375 C 181.449219 22.757812 181.15625 22.972656 180.820312 23.121094 C 180.480469 23.277344 180.09375 23.421875 179.65625 23.554688 L 179.65625 24.828125 C 179.65625 25.453125 179.589844 25.980469 179.457031 26.414062 C 179.328125 26.847656 179.144531 27.199219 178.910156 27.472656 C 178.679688 27.742188 178.414062 27.9375 178.113281 28.058594 C 177.816406 28.175781 177.503906 28.238281 177.171875 28.238281 C 176.511719 28.238281 175.992188 28.046875 175.621094 27.671875 C 175.25 27.289062 175.066406 26.828125 175.066406 26.285156 C 175.066406 25.9375 175.140625 25.625 175.292969 25.347656 C 175.445312 25.066406 175.644531 24.8125 175.886719 24.582031 C 176.136719 24.347656 176.414062 24.140625 176.722656 23.964844 C 177.035156 23.785156 177.351562 23.625 177.667969 23.492188 L 177.667969 21.78125 C 177.417969 22.125 177.101562 22.410156 176.722656 22.636719 C 176.347656 22.863281 175.921875 22.976562 175.441406 22.976562 C 175.046875 22.976562 174.644531 22.898438 174.238281 22.746094 C 173.835938 22.59375 173.472656 22.34375 173.144531 22 C 172.820312 21.652344 172.554688 21.203125 172.351562 20.644531 C 172.144531 20.085938 172.042969 19.40625 172.042969 18.609375 C 172.042969 18.011719 172.113281 17.394531 172.25 16.757812 C 172.390625 16.121094 172.613281 15.539062 172.917969 15.011719 C 173.222656 14.488281 173.613281 14.054688 174.089844 13.707031 C 174.570312 13.363281 175.144531 13.191406 175.820312 13.191406 C 175.980469 13.191406 176.148438 13.207031 176.324219 13.238281 C 176.507812 13.273438 176.679688 13.328125 176.84375 13.410156 C 177.007812 13.488281 177.167969 13.597656 177.3125 13.734375 C 177.457031 13.878906 177.578125 14.046875 177.667969 14.246094 Z M 175.941406 21.460938 C 176.140625 21.460938 176.339844 21.40625 176.542969 21.300781 C 176.75 21.195312 176.9375 21.050781 177.101562 20.863281 C 177.269531 20.675781 177.40625 20.457031 177.511719 20.207031 C 177.617188 19.953125 177.667969 19.679688 177.667969 19.386719 L 177.667969 15.144531 C 177.578125 14.929688 177.433594 14.734375 177.242188 14.554688 C 177.050781 14.375 176.800781 14.285156 176.496094 14.285156 C 176.074219 14.285156 175.707031 14.421875 175.402344 14.691406 C 175.097656 14.964844 174.851562 15.308594 174.667969 15.722656 C 174.480469 16.132812 174.347656 16.585938 174.257812 17.078125 C 174.171875 17.566406 174.132812 18.03125 174.132812 18.472656 C 174.132812 19.546875 174.285156 20.3125 174.597656 20.769531 C 174.910156 21.230469 175.355469 21.460938 175.941406 21.460938 Z M 176.796875 27.199219 C 177.152344 27.199219 177.386719 27.066406 177.5 26.792969 C 177.613281 26.519531 177.667969 26.152344 177.667969 25.6875 L 177.667969 24.289062 C 177.007812 24.597656 176.535156 24.898438 176.257812 25.199219 C 175.980469 25.496094 175.839844 25.832031 175.839844 26.203125 C 175.839844 26.507812 175.921875 26.75 176.085938 26.929688 C 176.253906 27.109375 176.488281 27.199219 176.796875 27.199219 Z M 186.695312 13.289062 L 188.683594 13.289062 L 188.683594 20.066406 C 188.683594 20.199219 188.691406 20.363281 188.703125 20.5625 C 188.714844 20.761719 188.75 20.957031 188.808594 21.148438 C 188.871094 21.34375 188.960938 21.511719 189.082031 21.648438 C 189.199219 21.789062 189.367188 21.859375 189.578125 21.859375 C 190.226562 21.859375 190.703125 21.136719 191.007812 19.6875 L 191.746094 19.6875 C 191.597656 20.523438 191.414062 21.183594 191.1875 21.667969 C 190.960938 22.15625 190.722656 22.523438 190.472656 22.777344 C 190.21875 23.027344 189.960938 23.191406 189.695312 23.265625 C 189.433594 23.339844 189.191406 23.375 188.980469 23.375 C 188.675781 23.375 188.414062 23.320312 188.195312 23.214844 C 187.976562 23.109375 187.792969 22.96875 187.636719 22.796875 C 187.484375 22.625 187.363281 22.425781 187.273438 22.199219 C 187.179688 21.972656 187.105469 21.738281 187.054688 21.5 C 186.800781 22.152344 186.46875 22.625 186.058594 22.921875 C 185.648438 23.222656 185.21875 23.375 184.765625 23.375 C 184.382812 23.375 184.019531 23.320312 183.671875 23.214844 C 183.328125 23.109375 183.03125 22.933594 182.777344 22.683594 C 182.527344 22.441406 182.328125 22.121094 182.183594 21.726562 C 182.035156 21.335938 181.964844 20.855469 181.964844 20.285156 L 181.964844 13.289062 L 183.953125 13.289062 L 183.953125 20.066406 C 183.953125 20.71875 184.0625 21.179688 184.289062 21.449219 C 184.515625 21.722656 184.800781 21.859375 185.144531 21.859375 C 185.328125 21.859375 185.515625 21.808594 185.699219 21.707031 C 185.886719 21.609375 186.050781 21.46875 186.199219 21.28125 C 186.34375 21.09375 186.464844 20.871094 186.554688 20.605469 C 186.648438 20.339844 186.695312 20.03125 186.695312 19.6875 Z M 191.003906 13.289062 L 192.992188 13.289062 L 192.992188 20.066406 C 192.992188 20.199219 193 20.363281 193.011719 20.5625 C 193.027344 20.761719 193.0625 20.957031 193.125 21.148438 C 193.183594 21.34375 193.269531 21.511719 193.390625 21.648438 C 193.511719 21.789062 193.675781 21.859375 193.886719 21.859375 C 194.535156 21.859375 195.015625 21.136719 195.320312 19.6875 L 196.054688 19.6875 C 195.910156 20.523438 195.722656 21.183594 195.496094 21.667969 C 195.273438 22.15625 195.035156 22.523438 194.78125 22.777344 C 194.53125 23.027344 194.273438 23.191406 194.007812 23.265625 C 193.742188 23.339844 193.503906 23.375 193.292969 23.375 C 192.828125 23.375 192.449219 23.285156 192.15625 23.101562 C 191.867188 22.925781 191.632812 22.695312 191.460938 22.417969 C 191.289062 22.136719 191.171875 21.828125 191.105469 21.480469 C 191.039062 21.136719 191.003906 20.804688 191.003906 20.484375 Z M 190.648438 10.421875 C 190.648438 10.0625 190.773438 9.75 191.023438 9.484375 C 191.277344 9.21875 191.589844 9.085938 191.960938 9.085938 C 192.316406 9.085938 192.628906 9.21875 192.894531 9.484375 C 193.160156 9.75 193.292969 10.0625 193.292969 10.421875 C 193.292969 10.792969 193.160156 11.105469 192.894531 11.355469 C 192.628906 11.609375 192.316406 11.734375 191.960938 11.734375 C 191.589844 11.734375 191.277344 11.609375 191.023438 11.355469 C 190.773438 11.105469 190.648438 10.792969 190.648438 10.421875 Z M 202.117188 19.6875 L 202.953125 19.6875 C 202.566406 20.21875 202.175781 20.660156 201.773438 21.011719 C 201.367188 21.363281 200.972656 21.671875 200.585938 21.9375 C 200.441406 22.203125 200.253906 22.425781 200.03125 22.605469 C 199.804688 22.785156 199.5625 22.933594 199.308594 23.042969 C 199.046875 23.15625 198.789062 23.242188 198.53125 23.292969 C 198.273438 23.347656 198.035156 23.375 197.824219 23.375 C 197.242188 23.375 196.761719 23.28125 196.382812 23.09375 C 196.003906 22.910156 195.703125 22.671875 195.476562 22.386719 C 195.253906 22.101562 195.09375 21.78125 195 21.429688 C 194.90625 21.078125 194.863281 20.742188 194.863281 20.425781 C 194.863281 20.078125 194.933594 19.777344 195.074219 19.515625 C 195.210938 19.257812 195.378906 19.074219 195.578125 18.96875 C 195.921875 17.972656 196.261719 16.984375 196.589844 16.007812 C 196.921875 15.03125 197.140625 14.054688 197.246094 13.070312 L 199.253906 12.671875 C 199.574219 13.933594 199.835938 14.964844 200.042969 15.761719 C 200.246094 16.558594 200.410156 17.230469 200.539062 17.78125 C 200.664062 18.335938 200.757812 18.820312 200.816406 19.238281 C 200.875 19.65625 200.90625 20.117188 200.90625 20.625 C 201.128906 20.476562 201.34375 20.320312 201.542969 20.152344 C 201.738281 19.988281 201.933594 19.832031 202.117188 19.6875 Z M 198.796875 20.484375 C 198.796875 20.074219 198.773438 19.707031 198.730469 19.386719 C 198.683594 19.070312 198.613281 18.71875 198.519531 18.332031 C 198.425781 17.945312 198.3125 17.476562 198.171875 16.925781 C 198.03125 16.375 197.871094 15.667969 197.683594 14.804688 C 197.605469 15.546875 197.441406 16.257812 197.199219 16.9375 C 196.953125 17.613281 196.730469 18.3125 196.53125 19.03125 C 196.652344 19.109375 196.753906 19.21875 196.839844 19.355469 C 196.925781 19.496094 196.96875 19.679688 196.96875 19.90625 C 196.96875 20.160156 196.902344 20.351562 196.769531 20.484375 C 196.636719 20.617188 196.492188 20.683594 196.332031 20.683594 C 196.121094 20.683594 195.941406 20.589844 195.796875 20.40625 C 195.902344 20.871094 196.085938 21.230469 196.351562 21.492188 C 196.617188 21.75 196.96875 21.878906 197.40625 21.878906 C 197.832031 21.878906 198.167969 21.769531 198.421875 21.546875 C 198.671875 21.332031 198.796875 20.976562 198.796875 20.484375 Z M 208.320312 15.78125 C 208.320312 16.710938 207.9375 17.488281 207.175781 18.113281 C 206.414062 18.738281 205.359375 19.121094 204.007812 19.269531 C 204.058594 19.800781 204.15625 20.230469 204.292969 20.5625 C 204.433594 20.894531 204.601562 21.15625 204.800781 21.347656 C 205 21.542969 205.226562 21.675781 205.484375 21.746094 C 205.746094 21.824219 206.015625 21.859375 206.292969 21.859375 C 206.929688 21.859375 207.523438 21.695312 208.082031 21.359375 C 208.636719 21.027344 209.089844 20.472656 209.433594 19.6875 L 210.070312 19.6875 C 209.898438 20.179688 209.660156 20.644531 209.355469 21.089844 C 209.050781 21.535156 208.691406 21.929688 208.28125 22.265625 C 207.871094 22.605469 207.425781 22.875 206.949219 23.074219 C 206.472656 23.273438 205.980469 23.375 205.476562 23.375 C 205.011719 23.375 204.566406 23.292969 204.132812 23.136719 C 203.703125 22.976562 203.324219 22.714844 202.992188 22.351562 C 202.660156 21.984375 202.390625 21.507812 202.183594 20.921875 C 201.980469 20.339844 201.878906 19.621094 201.878906 18.769531 C 201.878906 18.210938 201.941406 17.609375 202.066406 16.957031 C 202.191406 16.304688 202.40625 15.703125 202.703125 15.144531 C 203 14.585938 203.394531 14.121094 203.875 13.75 C 204.359375 13.375 204.960938 13.191406 205.675781 13.191406 C 206.007812 13.191406 206.328125 13.226562 206.636719 13.296875 C 206.949219 13.371094 207.234375 13.503906 207.484375 13.695312 C 207.738281 13.890625 207.9375 14.152344 208.089844 14.484375 C 208.242188 14.816406 208.320312 15.25 208.320312 15.78125 Z M 203.988281 18.492188 C 204.925781 18.34375 205.671875 18.011719 206.222656 17.496094 C 206.773438 16.976562 207.046875 16.339844 207.046875 15.582031 C 207.046875 15.078125 206.960938 14.714844 206.789062 14.492188 C 206.617188 14.277344 206.371094 14.167969 206.054688 14.167969 C 205.710938 14.167969 205.40625 14.300781 205.148438 14.566406 C 204.890625 14.832031 204.675781 15.171875 204.503906 15.589844 C 204.332031 16.007812 204.199219 16.472656 204.113281 16.984375 C 204.027344 17.496094 203.988281 18 203.988281 18.492188 Z M 203.988281 18.492188 "/>
</g>
<g clip-path="url(#clip2)" clip-rule="nonzero">
<path style=" stroke:none;fill-rule:nonzero;fill:rgb(6.666667%,6.666667%,6.666667%);fill-opacity:1;" d="M 70.953125 40.914062 C 71.785156 41.101562 72.441406 41.433594 72.917969 41.914062 C 73.398438 42.394531 73.636719 43.105469 73.636719 44.050781 C 73.636719 45.296875 73.214844 46.226562 72.378906 46.835938 C 71.539062 47.445312 70.398438 47.75 68.960938 47.75 L 65.71875 47.75 L 65.71875 34.847656 L 68.53125 34.847656 C 70.007812 34.847656 71.152344 35.125 71.957031 35.6875 C 72.765625 36.246094 73.167969 37.0625 73.167969 38.132812 C 73.167969 38.855469 72.96875 39.453125 72.566406 39.925781 C 72.160156 40.398438 71.625 40.730469 70.953125 40.914062 Z M 68.773438 36.601562 L 68.085938 36.601562 L 68.085938 40.167969 L 68.886719 40.167969 C 70.140625 40.167969 70.765625 39.558594 70.765625 38.339844 C 70.765625 37.726562 70.609375 37.285156 70.292969 37.011719 C 69.976562 36.738281 69.46875 36.601562 68.773438 36.601562 Z M 68.976562 45.957031 C 69.699219 45.957031 70.246094 45.804688 70.617188 45.496094 C 70.988281 45.195312 71.175781 44.679688 71.175781 43.960938 C 71.175781 43.238281 71.003906 42.703125 70.65625 42.359375 C 70.308594 42.019531 69.765625 41.847656 69.035156 41.847656 L 68.085938 41.847656 L 68.085938 45.957031 Z M 82.074219 37.871094 L 79.464844 47.785156 C 79.140625 48.980469 78.621094 49.921875 77.902344 50.605469 C 77.179688 51.292969 76.21875 51.691406 75.011719 51.800781 L 74.753906 50.175781 C 75.535156 50.015625 76.121094 49.757812 76.511719 49.402344 C 76.902344 49.046875 77.210938 48.496094 77.433594 47.75 L 76.578125 47.75 L 74.082031 37.871094 L 76.410156 37.871094 L 78.050781 46.21875 L 79.800781 37.871094 Z M 89.742188 34.847656 C 90.824219 34.847656 91.757812 35.011719 92.546875 35.339844 C 93.335938 35.671875 93.976562 36.304688 94.46875 37.242188 C 94.957031 38.183594 95.199219 39.515625 95.199219 41.234375 C 95.199219 43.660156 94.71875 45.351562 93.757812 46.3125 C 92.796875 47.269531 91.539062 47.75 89.984375 47.75 L 86.875 47.75 L 86.875 34.847656 Z M 90.097656 36.621094 L 89.242188 36.621094 L 89.242188 45.976562 L 90.117188 45.976562 C 90.675781 45.976562 91.144531 45.84375 91.523438 45.582031 C 91.902344 45.320312 92.199219 44.84375 92.417969 44.144531 C 92.632812 43.449219 92.742188 42.476562 92.742188 41.234375 C 92.742188 39.964844 92.628906 38.992188 92.398438 38.320312 C 92.167969 37.648438 91.863281 37.195312 91.488281 36.964844 C 91.105469 36.734375 90.644531 36.621094 90.097656 36.621094 Z M 103.210938 45.359375 C 103.210938 45.683594 103.253906 45.921875 103.339844 46.078125 C 103.429688 46.234375 103.570312 46.363281 103.769531 46.460938 L 103.304688 47.992188 C 102.792969 47.929688 102.386719 47.792969 102.085938 47.582031 C 101.78125 47.371094 101.550781 47.046875 101.402344 46.609375 C 100.832031 47.558594 100.03125 48.03125 99 48.03125 C 98.179688 48.03125 97.53125 47.753906 97.046875 47.195312 C 96.5625 46.644531 96.320312 45.90625 96.320312 44.984375 C 96.320312 43.914062 96.652344 43.101562 97.316406 42.539062 C 97.980469 41.980469 98.945312 41.699219 100.210938 41.699219 L 100.976562 41.699219 L 100.976562 41.007812 C 100.976562 40.386719 100.867188 39.945312 100.652344 39.691406 C 100.433594 39.4375 100.082031 39.308594 99.597656 39.308594 C 99.011719 39.308594 98.285156 39.472656 97.417969 39.792969 L 96.894531 38.300781 C 97.394531 38.078125 97.90625 37.90625 98.441406 37.785156 C 98.976562 37.667969 99.484375 37.609375 99.96875 37.609375 C 102.128906 37.609375 103.210938 38.707031 103.210938 40.898438 Z M 99.617188 46.367188 C 100.210938 46.367188 100.664062 45.957031 100.976562 45.136719 L 100.976562 43.0625 L 100.433594 43.0625 C 99.800781 43.0625 99.339844 43.207031 99.050781 43.492188 C 98.757812 43.777344 98.609375 44.21875 98.609375 44.816406 C 98.609375 45.328125 98.695312 45.714844 98.871094 45.976562 C 99.042969 46.238281 99.292969 46.367188 99.617188 46.367188 Z M 109.710938 37.628906 C 109.996094 37.628906 110.25 37.671875 110.476562 37.757812 L 110.101562 39.964844 C 109.855469 39.902344 109.625 39.871094 109.414062 39.871094 C 108.941406 39.871094 108.570312 40.074219 108.296875 40.484375 C 108.023438 40.898438 107.8125 41.507812 107.664062 42.316406 L 107.664062 47.75 L 105.371094 47.75 L 105.371094 37.871094 L 107.363281 37.871094 L 107.53125 39.589844 C 107.992188 38.28125 108.71875 37.628906 109.710938 37.628906 Z M 117.832031 45.359375 C 117.832031 45.683594 117.875 45.921875 117.960938 46.078125 C 118.050781 46.234375 118.191406 46.363281 118.390625 46.460938 L 117.925781 47.992188 C 117.417969 47.929688 117.007812 47.792969 116.703125 47.582031 C 116.402344 47.371094 116.175781 47.046875 116.027344 46.609375 C 115.453125 47.558594 114.652344 48.03125 113.621094 48.03125 C 112.804688 48.03125 112.152344 47.753906 111.667969 47.195312 C 111.183594 46.644531 110.941406 45.90625 110.941406 44.984375 C 110.941406 43.914062 111.273438 43.101562 111.933594 42.539062 C 112.601562 41.980469 113.566406 41.699219 114.832031 41.699219 L 115.597656 41.699219 L 115.597656 41.007812 C 115.597656 40.386719 115.488281 39.945312 115.269531 39.691406 C 115.054688 39.4375 114.703125 39.308594 114.21875 39.308594 C 113.636719 39.308594 112.910156 39.472656 112.039062 39.792969 L 111.519531 38.300781 C 112.015625 38.078125 112.53125 37.90625 113.0625 37.785156 C 113.597656 37.667969 114.105469 37.609375 114.589844 37.609375 C 116.753906 37.609375 117.832031 38.707031 117.832031 40.898438 Z M 114.238281 46.367188 C 114.832031 46.367188 115.285156 45.957031 115.597656 45.136719 L 115.597656 43.0625 L 115.058594 43.0625 C 114.421875 43.0625 113.960938 43.207031 113.667969 43.492188 C 113.375 43.777344 113.230469 44.21875 113.230469 44.816406 C 113.230469 45.328125 113.320312 45.714844 113.492188 45.976562 C 113.667969 46.238281 113.914062 46.367188 114.238281 46.367188 Z M 119.988281 33.914062 L 122.28125 33.671875 L 122.28125 47.75 L 119.988281 47.75 Z M 125.019531 37.871094 L 127.253906 37.871094 L 124.644531 42.242188 L 127.476562 47.75 L 125.019531 47.75 L 122.375 42.351562 Z M 133.027344 37.609375 C 133.734375 37.609375 134.292969 37.867188 134.703125 38.375 C 135.113281 38.886719 135.320312 39.570312 135.320312 40.429688 L 135.320312 47.75 L 133.027344 47.75 L 133.027344 40.691406 C 133.027344 40.21875 132.964844 39.878906 132.835938 39.671875 C 132.703125 39.46875 132.511719 39.367188 132.265625 39.367188 C 131.742188 39.367188 131.226562 39.855469 130.71875 40.839844 L 130.71875 47.75 L 128.425781 47.75 L 128.425781 33.929688 L 130.71875 33.6875 L 130.71875 39.046875 C 131.027344 38.5625 131.367188 38.203125 131.734375 37.964844 C 132.101562 37.726562 132.53125 37.609375 133.027344 37.609375 Z M 140.125 37.609375 C 141.292969 37.609375 142.277344 37.996094 143.085938 38.769531 L 142.210938 40.019531 C 141.863281 39.769531 141.535156 39.582031 141.222656 39.457031 C 140.914062 39.335938 140.597656 39.273438 140.273438 39.273438 C 139.914062 39.273438 139.628906 39.367188 139.425781 39.558594 C 139.21875 39.753906 139.117188 40.019531 139.117188 40.355469 C 139.117188 40.691406 139.234375 40.960938 139.460938 41.164062 C 139.691406 41.371094 140.15625 41.613281 140.851562 41.886719 C 141.707031 42.222656 142.339844 42.621094 142.75 43.082031 C 143.160156 43.542969 143.367188 44.160156 143.367188 44.929688 C 143.367188 45.886719 143.03125 46.644531 142.359375 47.195312 C 141.6875 47.753906 140.839844 48.03125 139.808594 48.03125 C 139.136719 48.03125 138.519531 47.90625 137.953125 47.664062 C 137.390625 47.421875 136.894531 47.082031 136.472656 46.648438 L 137.589844 45.414062 C 138.285156 46.027344 138.996094 46.332031 139.714844 46.332031 C 140.125 46.332031 140.449219 46.222656 140.683594 46.003906 C 140.917969 45.785156 141.039062 45.484375 141.039062 45.097656 C 141.039062 44.8125 140.988281 44.578125 140.886719 44.398438 C 140.789062 44.21875 140.613281 44.046875 140.367188 43.890625 C 140.117188 43.738281 139.746094 43.566406 139.25 43.378906 C 138.390625 43.042969 137.78125 42.652344 137.414062 42.203125 C 137.046875 41.753906 136.863281 41.183594 136.863281 40.484375 C 136.863281 39.652344 137.160156 38.964844 137.746094 38.421875 C 138.339844 37.878906 139.132812 37.609375 140.125 37.609375 Z M 149.402344 37.609375 C 150.109375 37.609375 150.667969 37.867188 151.078125 38.375 C 151.488281 38.886719 151.691406 39.570312 151.691406 40.429688 L 151.691406 47.75 L 149.402344 47.75 L 149.402344 40.691406 C 149.402344 40.21875 149.335938 39.878906 149.203125 39.671875 C 149.074219 39.46875 148.886719 39.367188 148.636719 39.367188 C 148.117188 39.367188 147.601562 39.855469 147.089844 40.839844 L 147.089844 47.75 L 144.800781 47.75 L 144.800781 33.929688 L 147.089844 33.6875 L 147.089844 39.046875 C 147.402344 38.5625 147.738281 38.203125 148.105469 37.964844 C 148.472656 37.726562 148.902344 37.609375 149.402344 37.609375 Z M 160.050781 45.359375 C 160.050781 45.683594 160.09375 45.921875 160.183594 46.078125 C 160.269531 46.234375 160.410156 46.363281 160.609375 46.460938 L 160.144531 47.992188 C 159.636719 47.929688 159.230469 47.792969 158.925781 47.582031 C 158.621094 47.371094 158.394531 47.046875 158.246094 46.609375 C 157.671875 47.558594 156.871094 48.03125 155.84375 48.03125 C 155.023438 48.03125 154.371094 47.753906 153.886719 47.195312 C 153.402344 46.644531 153.160156 45.90625 153.160156 44.984375 C 153.160156 43.914062 153.492188 43.101562 154.15625 42.539062 C 154.820312 41.980469 155.785156 41.699219 157.050781 41.699219 L 157.816406 41.699219 L 157.816406 41.007812 C 157.816406 40.386719 157.707031 39.945312 157.492188 39.691406 C 157.273438 39.4375 156.921875 39.308594 156.4375 39.308594 C 155.855469 39.308594 155.128906 39.472656 154.257812 39.792969 L 153.738281 38.300781 C 154.234375 38.078125 154.75 37.90625 155.28125 37.785156 C 155.816406 37.667969 156.324219 37.609375 156.808594 37.609375 C 158.972656 37.609375 160.050781 38.707031 160.050781 40.898438 Z M 156.457031 46.367188 C 157.050781 46.367188 157.503906 45.957031 157.816406 45.136719 L 157.816406 43.0625 L 157.277344 43.0625 C 156.644531 43.0625 156.179688 43.207031 155.890625 43.492188 C 155.597656 43.777344 155.449219 44.21875 155.449219 44.816406 C 155.449219 45.328125 155.539062 45.714844 155.710938 45.976562 C 155.886719 46.238281 156.132812 46.367188 156.457031 46.367188 Z M 166.8125 37.609375 C 167.519531 37.609375 168.078125 37.867188 168.488281 38.375 C 168.898438 38.886719 169.105469 39.570312 169.105469 40.429688 L 169.105469 47.75 L 166.8125 47.75 L 166.8125 40.691406 C 166.8125 40.21875 166.75 39.878906 166.621094 39.671875 C 166.488281 39.46875 166.296875 39.367188 166.050781 39.367188 C 165.527344 39.367188 165.011719 39.855469 164.503906 40.839844 L 164.503906 47.75 L 162.210938 47.75 L 162.210938 33.929688 L 164.503906 33.6875 L 164.503906 39.046875 C 164.8125 38.5625 165.152344 38.203125 165.519531 37.964844 C 165.886719 37.726562 166.316406 37.609375 166.8125 37.609375 Z M 177.261719 47.75 L 174.898438 47.75 L 174.898438 34.847656 L 181.117188 34.847656 L 180.855469 36.621094 L 177.261719 36.621094 L 177.261719 40.558594 L 180.390625 40.558594 L 180.390625 42.335938 L 177.261719 42.335938 Z M 182.34375 37.871094 L 184.636719 37.871094 L 184.636719 47.75 L 182.34375 47.75 Z M 183.480469 32.941406 C 183.890625 32.941406 184.222656 33.074219 184.476562 33.332031 C 184.730469 33.59375 184.859375 33.929688 184.859375 34.34375 C 184.859375 34.742188 184.730469 35.070312 184.476562 35.332031 C 184.222656 35.59375 183.890625 35.722656 183.480469 35.722656 C 183.070312 35.722656 182.738281 35.59375 182.484375 35.332031 C 182.230469 35.070312 182.101562 34.742188 182.101562 34.34375 C 182.101562 33.929688 182.230469 33.59375 182.484375 33.332031 C 182.738281 33.074219 183.070312 32.941406 183.480469 32.941406 Z M 191.582031 33.671875 L 193.875 33.914062 L 193.875 47.75 L 191.84375 47.75 L 191.730469 46.609375 C 191.148438 47.558594 190.398438 48.03125 189.476562 48.03125 C 188.460938 48.03125 187.679688 47.570312 187.140625 46.65625 C 186.601562 45.742188 186.328125 44.464844 186.328125 42.820312 C 186.328125 41.773438 186.46875 40.855469 186.75 40.0625 C 187.027344 39.273438 187.417969 38.667969 187.914062 38.246094 C 188.410156 37.820312 188.980469 37.609375 189.625 37.609375 C 190.421875 37.609375 191.074219 37.941406 191.582031 38.601562 Z M 190.128906 46.292969 C 190.414062 46.292969 190.671875 46.195312 190.90625 45.996094 C 191.132812 45.796875 191.359375 45.507812 191.582031 45.136719 L 191.582031 40.335938 C 191.183594 39.664062 190.730469 39.328125 190.222656 39.328125 C 189.21875 39.328125 188.714844 40.484375 188.714844 42.800781 C 188.714844 44.058594 188.839844 44.953125 189.085938 45.492188 C 189.335938 46.027344 189.683594 46.292969 190.128906 46.292969 Z M 202.292969 45.359375 C 202.292969 45.683594 202.335938 45.921875 202.421875 46.078125 C 202.511719 46.234375 202.652344 46.363281 202.851562 46.460938 L 202.386719 47.992188 C 201.875 47.929688 201.46875 47.792969 201.164062 47.582031 C 200.859375 47.371094 200.636719 47.046875 200.484375 46.609375 C 199.914062 47.558594 199.113281 48.03125 198.082031 48.03125 C 197.265625 48.03125 196.613281 47.753906 196.128906 47.195312 C 195.644531 46.644531 195.402344 45.90625 195.402344 44.984375 C 195.402344 43.914062 195.734375 43.101562 196.394531 42.539062 C 197.0625 41.980469 198.027344 41.699219 199.292969 41.699219 L 200.058594 41.699219 L 200.058594 41.007812 C 200.058594 40.386719 199.949219 39.945312 199.730469 39.691406 C 199.515625 39.4375 199.164062 39.308594 198.679688 39.308594 C 198.097656 39.308594 197.371094 39.472656 196.5 39.792969 L 195.976562 38.300781 C 196.476562 38.078125 196.992188 37.90625 197.523438 37.785156 C 198.058594 37.667969 198.566406 37.609375 199.050781 37.609375 C 201.210938 37.609375 202.292969 38.707031 202.292969 40.898438 Z M 198.699219 46.367188 C 199.292969 46.367188 199.746094 45.957031 200.058594 45.136719 L 200.058594 43.0625 L 199.515625 43.0625 C 198.882812 43.0625 198.421875 43.207031 198.128906 43.492188 C 197.835938 43.777344 197.691406 44.21875 197.691406 44.816406 C 197.691406 45.328125 197.777344 45.714844 197.953125 45.976562 C 198.125 46.238281 198.375 46.367188 198.699219 46.367188 Z M 198.699219 46.367188 "/>
</g>
<g clip-path="url(#clip3)" clip-rule="nonzero">
<path style=" stroke:none;fill-rule:evenodd;fill:rgb(87.058824%,41.960784%,2.352941%);fill-opacity:1;" d="M 35.640625 57.925781 L 34.566406 59.003906 C 34.214844 59.347656 33.796875 59.609375 33.335938 59.769531 C 32.429688 60.070312 31.550781 60.097656 30.71875 59.515625 L 29.386719 58.550781 C 28.953125 58.214844 28.363281 58.15625 27.871094 58.410156 C 26.785156 58.960938 25.582031 59.289062 24.421875 59.769531 C 23.972656 59.9375 23.507812 60.046875 23.035156 60.097656 C 22.59375 60.152344 22.15625 60.003906 21.84375 59.6875 C 21.449219 59.230469 21.042969 58.796875 20.628906 58.382812 L 19.75 57.445312 C 19.132812 56.90625 18.402344 56.511719 17.613281 56.28125 C 17.046875 56.140625 16.480469 55.957031 15.902344 55.84375 C 14.535156 55.523438 13.210938 55.046875 11.953125 54.421875 C 10.015625 53.59375 8.191406 52.511719 6.535156 51.203125 C 6.46875 51.128906 6.382812 51.0625 6.28125 51.003906 C 4.835938 49.957031 3.625 48.621094 2.730469 47.074219 C 2.324219 46.394531 1.925781 45.695312 1.539062 44.976562 C 1.15625 44.316406 0.957031 43.566406 0.960938 42.804688 C 0.945312 42.125 0.734375 41.445312 0.59375 40.707031 C 0.621094 39.996094 0.707031 39.246094 0.707031 38.492188 C 0.734375 35.65625 1.214844 32.890625 2.019531 30.195312 C 2.800781 27.65625 3.746094 25.171875 5.304688 23.003906 C 6.503906 21.199219 7.902344 19.539062 9.476562 18.050781 C 9.792969 17.757812 10.152344 17.515625 10.539062 17.328125 C 10.921875 17.160156 11.289062 16.902344 11.65625 16.703125 C 12.886719 16.023438 14.089844 15.34375 15.492188 14.988281 C 16.476562 14.726562 17.480469 14.542969 18.492188 14.433594 C 20.714844 14.234375 22.90625 14.476562 25.070312 15.003906 C 25.421875 15.117188 25.773438 15.25 26.132812 15.398438 C 26.378906 15.492188 26.640625 15.574219 26.925781 15.640625 C 27.09375 15.484375 27.292969 15.355469 27.378906 15.1875 C 28.3125 13.058594 28.671875 10.71875 28.425781 8.40625 C 28.296875 7.613281 28.183594 6.804688 27.902344 6.039062 C 27.84375 5.910156 27.929688 5.726562 27.945312 5.582031 C 30.335938 4.492188 32.402344 2.945312 34.253906 1.128906 C 34.480469 0.902344 34.679688 0.632812 34.933594 0.433594 C 35.230469 0.191406 35.527344 -0.046875 35.9375 0.0078125 C 36.050781 0.0273438 36.15625 0.0585938 36.25 0.109375 C 36.972656 0.832031 37.792969 1.441406 38.597656 2.066406 C 39.269531 2.632812 39.910156 3.214844 40.523438 3.808594 C 40.710938 4 40.890625 4.207031 41.0625 4.433594 L 41.101562 5.3125 C 40.566406 6.179688 40.113281 6.960938 39.617188 7.726562 C 39.246094 8.351562 38.648438 8.808594 37.949219 9 C 37.339844 9 36.730469 8.816406 36.09375 8.648438 C 35.3125 8.40625 34.65625 7.867188 34.269531 7.144531 C 34.183594 7.015625 34.183594 6.832031 34.140625 6.660156 C 34.523438 6.136719 35.117188 5.867188 35.414062 5.457031 C 35.851562 5.5 35.964844 5.695312 36.050781 5.894531 C 36.265625 6.40625 36.671875 6.816406 37.183594 7.03125 C 37.820312 6.773438 38.160156 6.222656 38.472656 5.78125 C 38.570312 5.300781 38.371094 5.042969 38.132812 4.84375 C 37.332031 4.214844 36.425781 3.734375 35.457031 3.425781 C 34.5625 4.023438 33.855469 4.867188 33.417969 5.851562 C 32.609375 7.570312 32.214844 9.457031 32.257812 11.355469 C 32.226562 12.777344 32.726562 14.160156 33.660156 15.230469 C 33.679688 15.25 33.753906 15.28125 33.886719 15.328125 L 35.105469 14.675781 L 36.40625 14.023438 C 38.515625 12.929688 40.886719 12.449219 43.253906 12.632812 C 44.007812 12.71875 44.761719 12.773438 45.519531 12.804688 C 46.90625 12.859375 48.136719 13.371094 49.351562 13.96875 C 49.4375 14.023438 49.53125 14.082031 49.636719 14.136719 C 51.164062 14.621094 52.253906 15.769531 53.300781 16.929688 C 53.507812 17.1875 53.726562 17.429688 53.953125 17.65625 C 54.984375 18.648438 55.707031 19.839844 56.371094 21.074219 C 57.390625 22.972656 58.351562 24.917969 59.003906 26.976562 C 59.128906 27.386719 59.34375 27.769531 59.484375 28.167969 C 59.78125 29.089844 60.164062 30.011719 60.320312 30.945312 C 60.730469 33.402344 61.070312 35.882812 61.011719 38.367188 C 60.941406 41.488281 60.417969 44.492188 58.832031 47.261719 C 57.648438 49.332031 55.839844 50.972656 53.667969 51.957031 C 51.660156 52.949219 49.507812 53.429688 47.414062 54.082031 C 47.132812 54.167969 46.875 54.183594 46.636719 54.296875 C 46.019531 54.507812 45.492188 54.929688 45.148438 55.488281 C 44.90625 55.902344 44.648438 56.320312 44.386719 56.734375 C 44.214844 57.019531 44.089844 57.304688 43.875 57.558594 C 43.417969 58.179688 42.707031 58.558594 41.9375 58.59375 C 41.402344 58.628906 40.863281 58.585938 40.339844 58.464844 C 39.601562 58.28125 38.839844 58.152344 38.132812 57.941406 C 37.316406 57.71875 36.457031 57.710938 35.640625 57.925781 M 35.328125 23.128906 C 35.695312 23.203125 36.070312 23.203125 36.433594 23.128906 C 37.128906 23.046875 37.835938 22.917969 38.5 22.960938 C 40.4375 23.046875 42.375 23.128906 44.285156 23.328125 C 45.519531 23.472656 46.761719 23.472656 48.007812 23.457031 C 48.148438 23.457031 48.292969 23.34375 48.433594 23.285156 C 48.570312 22.433594 48.511719 21.558594 48.261719 20.734375 C 48.148438 20.433594 47.964844 20.164062 47.851562 19.953125 C 47.1875 19.699219 46.59375 19.769531 46.011719 19.824219 C 43.820312 20.050781 41.625 20.378906 39.519531 20.960938 C 38.324219 21.277344 37.179688 21.75 36.109375 22.363281 C 35.78125 22.5625 35.441406 22.734375 35.328125 23.160156 Z M 49.367188 45.386719 C 49.414062 45.367188 49.453125 45.332031 49.480469 45.273438 C 50.203125 44.328125 50.71875 43.242188 50.992188 42.082031 C 51.691406 39.339844 52.355469 36.613281 52.988281 33.898438 C 53.214844 32.847656 53.273438 31.753906 53.398438 30.675781 C 53.414062 30.464844 53.371094 30.25 53.144531 30.136719 C 53.03125 30.167969 52.9375 30.210938 52.863281 30.265625 C 51.976562 31.335938 51.070312 32.398438 50.144531 33.457031 C 49.480469 34.222656 48.984375 35.144531 48.40625 35.96875 C 48.292969 36.101562 48.164062 36.210938 48.023438 36.292969 C 47.597656 35.941406 47.074219 36.324219 46.578125 36.082031 L 45.09375 34.449219 C 44.933594 34.269531 44.734375 34.222656 44.5 34.308594 C 43.792969 34.917969 44.074219 35.941406 43.566406 36.675781 C 43.394531 36.675781 43.238281 36.707031 43.113281 36.636719 C 42.90625 36.550781 42.722656 36.421875 42.574219 36.253906 C 41.222656 35.011719 39.621094 34.078125 37.875 33.515625 C 37.566406 33.386719 37.238281 33.328125 36.871094 33.570312 C 36.339844 34.65625 35.898438 35.785156 35.554688 36.945312 L 34.539062 37.898438 C 34.125 37.910156 33.726562 37.738281 33.449219 37.429688 C 33.117188 37.078125 32.789062 36.71875 32.457031 36.351562 C 32.175781 36.066406 31.917969 35.8125 31.4375 35.753906 C 31.25 35.90625 31.074219 36.078125 30.914062 36.265625 L 29.613281 38.125 C 29.519531 38.332031 29.316406 38.4375 29.003906 38.4375 L 28.058594 37.214844 C 27.675781 36.761719 27.265625 36.324219 26.9375 35.828125 C 26.464844 35.175781 25.816406 34.675781 25.070312 34.378906 C 24.886719 34.4375 24.6875 34.4375 24.589844 34.507812 C 24.015625 34.921875 23.445312 35.335938 22.878906 35.742188 C 21.988281 36.382812 21.199219 37.152344 20.527344 38.023438 C 20.09375 38.101562 19.769531 38 19.554688 37.726562 C 19.421875 37.574219 19.304688 37.402344 19.199219 37.203125 C 18.910156 36.710938 18.5 36.300781 18.011719 36.011719 C 17.691406 36.011719 17.503906 36.125 17.457031 36.351562 C 17.269531 36.976562 17.078125 37.59375 16.878906 38.210938 C 16.707031 38.707031 16.355469 39.019531 15.773438 39.019531 L 15.308594 38.605469 C 14.785156 37.96875 14.332031 37.300781 13.78125 36.707031 C 13.183594 36.082031 12.433594 35.628906 11.839844 34.976562 C 10.972656 34.03125 10.082031 33.097656 9.167969 32.179688 C 8.882812 31.910156 8.671875 31.597656 8.261719 31.570312 C 8.121094 31.617188 8.035156 31.679688 8.007812 31.753906 C 7.914062 31.945312 7.867188 32.152344 7.863281 32.367188 L 8.304688 37.371094 C 8.351562 37.648438 8.417969 37.90625 8.5 38.152344 L 8.941406 39.714844 C 9.265625 41.046875 9.875 42.265625 10.484375 43.445312 C 10.992188 44.410156 11.585938 45.316406 12.136719 46.222656 L 12.972656 47.429688 C 13.101562 47.585938 13.296875 47.683594 13.441406 47.800781 C 13.667969 47.714844 13.851562 47.699219 13.964844 47.585938 C 14.613281 46.875 15.433594 46.335938 15.972656 45.515625 C 16.21875 45.136719 16.566406 45.078125 17.019531 45.34375 C 17.273438 45.761719 17.5625 46.195312 17.882812 46.648438 C 18.902344 48.097656 19.945312 49.539062 21.011719 50.976562 C 21.207031 51.289062 21.464844 51.601562 21.957031 51.628906 C 22.851562 50.933594 22.878906 49.628906 23.671875 48.847656 C 23.8125 48.800781 23.925781 48.773438 24.011719 48.761719 C 24.171875 48.785156 24.332031 48.832031 24.476562 48.90625 C 25.070312 49.296875 25.582031 49.796875 25.992188 50.378906 C 26.332031 50.910156 26.6875 51.445312 27.066406 51.984375 C 27.410156 52.515625 27.925781 52.914062 28.523438 53.117188 C 28.917969 53.066406 29.273438 52.851562 29.5 52.523438 C 29.910156 51.957031 30.277344 51.332031 30.71875 50.792969 C 31.226562 50.238281 31.621094 49.585938 31.878906 48.878906 C 31.90625 48.761719 32.105469 48.722656 32.257812 48.609375 C 32.683594 49.730469 33.304688 50.769531 34.097656 51.671875 C 34.3125 51.898438 34.777344 51.914062 34.992188 51.699219 C 35.152344 51.570312 35.300781 51.421875 35.429688 51.261719 C 36.128906 50.285156 36.824219 49.320312 37.523438 48.367188 C 37.910156 47.847656 38.304688 47.335938 38.710938 46.835938 C 38.851562 46.679688 39.039062 46.550781 39.363281 46.691406 C 39.851562 47.308594 40.183594 48.035156 40.339844 48.804688 L 40.722656 50.367188 C 40.777344 50.507812 40.917969 50.621094 41.019531 50.75 C 41.1875 50.722656 41.371094 50.734375 41.472656 50.636719 C 41.824219 50.324219 42.234375 50.027344 42.488281 49.628906 C 43.453125 48.304688 44.320312 46.949219 45.09375 45.558594 C 45.445312 44.890625 45.773438 44.195312 46.253906 43.699219 C 46.855469 43.464844 47.285156 43.605469 47.542969 44.125 C 47.78125 44.578125 47.824219 45.160156 48.234375 45.515625 C 48.648438 45.636719 49.027344 45.59375 49.367188 45.386719 M 27.335938 24.4375 C 26.773438 23.933594 26.089844 23.59375 25.355469 23.441406 C 23.789062 23.046875 22.214844 22.648438 20.628906 22.25 C 20.019531 22.09375 19.382812 21.953125 18.773438 21.710938 C 17.0625 21.066406 15.242188 20.757812 13.410156 20.804688 C 13.128906 20.804688 12.859375 20.777344 12.546875 21.03125 C 12.507812 21.128906 12.363281 21.316406 12.320312 21.511719 C 12.078125 22.515625 11.851562 23.511719 11.644531 24.507812 C 11.59375 24.824219 11.578125 25.148438 11.601562 25.472656 C 11.601562 25.597656 11.769531 25.710938 11.882812 25.867188 L 12.507812 25.65625 C 13.570312 25.277344 14.679688 25.03125 15.804688 24.917969 C 16.867188 24.796875 17.941406 24.691406 19.015625 24.605469 C 20.203125 24.492188 21.378906 24.308594 22.566406 24.492188 C 23.792969 24.671875 25.027344 24.742188 26.273438 24.707031 C 26.585938 24.714844 26.898438 24.71875 27.207031 24.71875 C 27.25 24.707031 27.292969 24.535156 27.335938 24.4375 M 33.773438 28.308594 C 33.746094 28.152344 33.773438 28.011719 33.703125 27.96875 C 33.230469 27.628906 32.753906 27.285156 32.273438 26.945312 C 31.816406 26.660156 31.28125 26.527344 30.746094 26.5625 C 29.992188 26.574219 29.269531 26.855469 28.707031 27.359375 L 27.617188 28.324219 C 27.5625 28.363281 27.589844 28.507812 27.589844 28.59375 C 27.683594 28.648438 27.777344 28.6875 27.871094 28.707031 L 33.164062 28.421875 C 33.378906 28.421875 33.5625 28.335938 33.773438 28.308594 "/>
</g>
</g>
</svg>
