<?xml version="1.0" encoding="UTF-8"?>
<svg xmlns="http://www.w3.org/2000/svg" xmlns:xlink="http://www.w3.org/1999/xlink" width="214px" height="60px" viewBox="0 0 214 60" version="1.1">
<defs>
<clipPath id="clip1">
  <path d="M 65.671875 8.308594 L 214 8.308594 L 214 27.828125 L 65.671875 27.828125 Z M 65.671875 8.308594 "/>
</clipPath>
<clipPath id="clip2">
  <path d="M 65.671875 32.433594 L 206.664062 32.433594 L 206.664062 51.800781 L 65.671875 51.800781 Z M 65.671875 32.433594 "/>
</clipPath>
<clipPath id="clip3">
  <path d="M 0.578125 0.121094 L 61.070312 0.121094 L 61.070312 60 L 0.578125 60 Z M 0.578125 0.121094 "/>
</clipPath>
</defs>
<g id="surface1">
<g clip-path="url(#clip1)" clip-rule="nonzero">
<path style=" stroke:none;fill-rule:nonzero;fill:rgb(62.352941%,47.45098%,25.490196%);fill-opacity:1;" d="M 75.835938 8.949219 L 77.960938 8.347656 L 77.960938 22.945312 L 75.835938 22.945312 L 75.835938 15.605469 L 71.625 15.605469 L 71.625 22.945312 L 69.503906 22.945312 L 69.503906 9.339844 C 68.789062 9.628906 68.226562 10.085938 67.816406 10.714844 C 67.40625 11.347656 67.203125 12.101562 67.203125 12.972656 C 67.203125 13.425781 67.230469 13.792969 67.292969 14.066406 C 67.347656 14.339844 67.421875 14.558594 67.515625 14.730469 C 67.605469 14.898438 67.703125 15.019531 67.804688 15.097656 C 67.910156 15.175781 68.007812 15.234375 68.097656 15.273438 C 67.761719 15.273438 67.445312 15.230469 67.152344 15.144531 C 66.859375 15.0625 66.609375 14.921875 66.394531 14.730469 C 66.179688 14.535156 66.007812 14.28125 65.875 13.976562 C 65.746094 13.671875 65.679688 13.296875 65.679688 12.855469 C 65.679688 12.242188 65.824219 11.660156 66.109375 11.105469 C 66.394531 10.554688 66.78125 10.070312 67.261719 9.652344 C 67.742188 9.238281 68.289062 8.90625 68.910156 8.667969 C 69.527344 8.425781 70.164062 8.308594 70.828125 8.308594 C 70.96875 8.308594 71.105469 8.308594 71.238281 8.316406 C 71.367188 8.324219 71.496094 8.332031 71.625 8.347656 L 71.625 14.457031 L 75.835938 14.457031 Z M 85 13.1875 L 86.949219 13.1875 L 86.949219 19.824219 C 86.949219 19.953125 86.953125 20.117188 86.96875 20.3125 C 86.980469 20.507812 87.015625 20.695312 87.074219 20.882812 C 87.132812 21.074219 87.21875 21.238281 87.335938 21.371094 C 87.453125 21.511719 87.617188 21.578125 87.824219 21.578125 C 88.460938 21.578125 88.929688 20.871094 89.226562 19.453125 L 89.949219 19.453125 C 89.804688 20.273438 89.625 20.917969 89.402344 21.390625 C 89.183594 21.867188 88.949219 22.230469 88.703125 22.476562 C 88.453125 22.722656 88.203125 22.882812 87.941406 22.957031 C 87.683594 23.027344 87.449219 23.0625 87.238281 23.0625 C 86.941406 23.0625 86.683594 23.011719 86.46875 22.90625 C 86.253906 22.800781 86.074219 22.664062 85.921875 22.496094 C 85.773438 22.328125 85.65625 22.132812 85.5625 21.910156 C 85.472656 21.691406 85.402344 21.457031 85.347656 21.207031 C 85.15625 21.714844 84.839844 22.152344 84.402344 22.515625 C 83.96875 22.878906 83.4375 23.0625 82.816406 23.0625 C 82.425781 23.0625 82.03125 22.984375 81.632812 22.828125 C 81.238281 22.671875 80.882812 22.417969 80.5625 22.058594 C 80.246094 21.699219 79.984375 21.238281 79.78125 20.667969 C 79.582031 20.105469 79.480469 19.414062 79.480469 18.59375 C 79.480469 17.996094 79.550781 17.371094 79.683594 16.71875 C 79.824219 16.070312 80.039062 15.476562 80.339844 14.941406 C 80.636719 14.410156 81.023438 13.96875 81.488281 13.617188 C 81.957031 13.265625 82.523438 13.089844 83.1875 13.089844 C 83.339844 13.089844 83.507812 13.105469 83.679688 13.136719 C 83.855469 13.167969 84.027344 13.226562 84.1875 13.304688 C 84.351562 13.382812 84.503906 13.488281 84.648438 13.625 C 84.789062 13.761719 84.90625 13.929688 85 14.125 Z M 83.300781 21.578125 C 83.496094 21.578125 83.695312 21.523438 83.894531 21.410156 C 84.097656 21.300781 84.28125 21.152344 84.441406 20.960938 C 84.605469 20.773438 84.738281 20.550781 84.84375 20.292969 C 84.945312 20.03125 85 19.75 85 19.453125 L 85 15 C 84.90625 14.792969 84.765625 14.601562 84.578125 14.425781 C 84.390625 14.25 84.148438 14.164062 83.847656 14.164062 C 83.433594 14.164062 83.074219 14.300781 82.777344 14.582031 C 82.476562 14.859375 82.238281 15.210938 82.054688 15.632812 C 81.875 16.058594 81.738281 16.519531 81.652344 17.019531 C 81.570312 17.523438 81.527344 18 81.527344 18.457031 C 81.527344 19.574219 81.679688 20.375 81.984375 20.855469 C 82.292969 21.339844 82.730469 21.578125 83.300781 21.578125 Z M 89.226562 9.554688 L 91.175781 9.28125 L 91.175781 19.824219 C 91.175781 19.953125 91.183594 20.117188 91.195312 20.3125 C 91.210938 20.507812 91.246094 20.695312 91.300781 20.882812 C 91.363281 21.074219 91.449219 21.238281 91.566406 21.371094 C 91.683594 21.511719 91.847656 21.578125 92.054688 21.578125 C 92.691406 21.578125 93.160156 20.871094 93.457031 19.453125 L 94.179688 19.453125 C 94.035156 20.273438 93.855469 20.917969 93.632812 21.390625 C 93.414062 21.867188 93.179688 22.230469 92.933594 22.476562 C 92.683594 22.722656 92.429688 22.882812 92.171875 22.957031 C 91.910156 23.027344 91.675781 23.0625 91.46875 23.0625 C 91.015625 23.0625 90.644531 22.972656 90.359375 22.796875 C 90.074219 22.621094 89.84375 22.398438 89.675781 22.125 C 89.507812 21.851562 89.390625 21.546875 89.324219 21.207031 C 89.261719 20.871094 89.226562 20.546875 89.226562 20.234375 Z M 93.433594 9.554688 L 95.382812 9.28125 L 95.382812 19.824219 C 95.382812 19.953125 95.390625 20.117188 95.402344 20.3125 C 95.417969 20.507812 95.453125 20.695312 95.511719 20.882812 C 95.570312 21.074219 95.65625 21.238281 95.773438 21.371094 C 95.890625 21.511719 96.054688 21.578125 96.261719 21.578125 C 96.898438 21.578125 97.367188 20.871094 97.664062 19.453125 L 98.386719 19.453125 C 98.242188 20.273438 98.0625 20.917969 97.839844 21.390625 C 97.617188 21.867188 97.386719 22.230469 97.136719 22.476562 C 96.890625 22.722656 96.636719 22.882812 96.378906 22.957031 C 96.117188 23.027344 95.882812 23.0625 95.675781 23.0625 C 95.222656 23.0625 94.851562 22.972656 94.566406 22.796875 C 94.277344 22.621094 94.050781 22.398438 93.882812 22.125 C 93.714844 21.851562 93.597656 21.546875 93.53125 21.207031 C 93.46875 20.871094 93.433594 20.546875 93.433594 20.234375 Z M 101.191406 13.089844 C 101.699219 13.089844 102.132812 13.167969 102.5 13.324219 C 102.863281 13.480469 103.160156 13.695312 103.394531 13.976562 C 103.628906 14.257812 103.816406 14.585938 103.953125 14.960938 C 104.085938 15.339844 104.1875 15.742188 104.253906 16.171875 L 104.371094 16.171875 C 104.914062 16.171875 105.414062 16.0625 105.871094 15.839844 C 106.324219 15.621094 106.714844 15.339844 107.039062 15 L 107.332031 15.527344 C 107.074219 15.945312 106.660156 16.289062 106.097656 16.5625 C 105.53125 16.835938 104.949219 17.023438 104.351562 17.128906 C 104.351562 17.257812 104.355469 17.390625 104.363281 17.519531 C 104.367188 17.648438 104.371094 17.785156 104.371094 17.929688 C 104.371094 19.53125 104.078125 20.785156 103.492188 21.695312 C 102.90625 22.605469 102.089844 23.0625 101.035156 23.0625 C 100.609375 23.0625 100.175781 22.984375 99.742188 22.828125 C 99.304688 22.671875 98.910156 22.414062 98.5625 22.046875 C 98.210938 21.683594 97.929688 21.214844 97.714844 20.640625 C 97.5 20.070312 97.390625 19.359375 97.390625 18.515625 C 97.390625 17.941406 97.453125 17.335938 97.578125 16.699219 C 97.699219 16.0625 97.910156 15.476562 98.203125 14.941406 C 98.492188 14.410156 98.882812 13.96875 99.371094 13.617188 C 99.859375 13.265625 100.464844 13.089844 101.191406 13.089844 Z M 101.386719 21.578125 C 102.074219 21.578125 102.582031 21.238281 102.90625 20.554688 C 103.234375 19.871094 103.394531 18.90625 103.394531 17.65625 C 103.394531 17.578125 103.394531 17.5 103.394531 17.421875 C 103.394531 17.34375 103.386719 17.265625 103.375 17.1875 C 103 17.160156 102.730469 17.078125 102.570312 16.933594 C 102.40625 16.789062 102.324219 16.550781 102.324219 16.210938 C 102.324219 15.914062 102.386719 15.699219 102.519531 15.574219 C 102.648438 15.453125 102.84375 15.386719 103.101562 15.371094 C 102.945312 14.917969 102.75 14.601562 102.511719 14.425781 C 102.269531 14.25 102 14.164062 101.699219 14.164062 C 101.296875 14.164062 100.957031 14.296875 100.679688 14.5625 C 100.398438 14.828125 100.167969 15.171875 99.996094 15.585938 C 99.820312 16.003906 99.691406 16.460938 99.613281 16.960938 C 99.535156 17.464844 99.496094 17.957031 99.496094 18.4375 C 99.496094 19.074219 99.554688 19.59375 99.671875 20 C 99.789062 20.402344 99.9375 20.71875 100.121094 20.953125 C 100.300781 21.1875 100.503906 21.351562 100.726562 21.441406 C 100.945312 21.535156 101.167969 21.578125 101.386719 21.578125 Z M 105.792969 13.1875 L 107.742188 13.1875 L 107.742188 19.824219 C 107.742188 20.460938 107.851562 20.910156 108.074219 21.175781 C 108.292969 21.445312 108.574219 21.578125 108.910156 21.578125 C 109.09375 21.578125 109.273438 21.53125 109.457031 21.429688 C 109.640625 21.335938 109.800781 21.195312 109.945312 21.011719 C 110.085938 20.832031 110.203125 20.609375 110.296875 20.351562 C 110.386719 20.089844 110.433594 19.789062 110.433594 19.453125 L 110.433594 13.1875 L 112.382812 13.1875 L 112.382812 19.824219 C 112.382812 20.042969 112.394531 20.257812 112.421875 20.46875 C 112.445312 20.675781 112.5 20.859375 112.582031 21.019531 C 112.667969 21.183594 112.785156 21.320312 112.933594 21.421875 C 113.085938 21.527344 113.277344 21.578125 113.511719 21.578125 C 113.914062 21.578125 114.253906 21.433594 114.523438 21.136719 C 114.796875 20.847656 115.023438 20.46875 115.195312 20 C 115.371094 19.53125 115.5 19.003906 115.578125 18.425781 C 115.65625 17.847656 115.695312 17.273438 115.695312 16.699219 C 115.695312 16.335938 115.683594 15.972656 115.65625 15.613281 C 115.628906 15.257812 115.585938 14.9375 115.519531 14.652344 C 115.453125 14.714844 115.371094 14.757812 115.265625 14.773438 C 115.160156 14.796875 115.078125 14.804688 115.011719 14.804688 C 114.699219 14.804688 114.464844 14.695312 114.3125 14.476562 C 114.15625 14.253906 114.078125 14.019531 114.078125 13.773438 C 114.078125 13.511719 114.160156 13.28125 114.332031 13.078125 C 114.5 12.875 114.746094 12.777344 115.070312 12.777344 C 115.292969 12.777344 115.503906 12.839844 115.703125 12.972656 C 115.90625 13.101562 116.082031 13.304688 116.230469 13.585938 C 116.378906 13.867188 116.496094 14.234375 116.578125 14.691406 C 116.664062 15.144531 116.707031 15.703125 116.707031 16.367188 C 116.707031 17.109375 116.644531 17.875 116.519531 18.660156 C 116.398438 19.449219 116.195312 20.167969 115.910156 20.816406 C 115.625 21.46875 115.253906 22.003906 114.796875 22.425781 C 114.34375 22.851562 113.777344 23.0625 113.101562 23.0625 C 112.59375 23.0625 112.113281 22.933594 111.660156 22.671875 C 111.203125 22.414062 110.867188 22.035156 110.644531 21.539062 C 110.386719 22.074219 110.070312 22.460938 109.699219 22.699219 C 109.328125 22.941406 108.945312 23.0625 108.542969 23.0625 C 108.164062 23.0625 107.808594 23.011719 107.46875 22.90625 C 107.132812 22.800781 106.839844 22.628906 106.59375 22.386719 C 106.34375 22.148438 106.148438 21.835938 106.007812 21.449219 C 105.863281 21.066406 105.792969 20.597656 105.792969 20.039062 Z M 124.039062 15.625 C 124.039062 16.539062 123.664062 17.296875 122.914062 17.910156 C 122.167969 18.523438 121.132812 18.898438 119.808594 19.042969 C 119.859375 19.5625 119.953125 19.984375 120.089844 20.3125 C 120.226562 20.636719 120.390625 20.890625 120.585938 21.078125 C 120.78125 21.269531 121.003906 21.398438 121.257812 21.46875 C 121.511719 21.542969 121.777344 21.578125 122.050781 21.578125 C 122.671875 21.578125 123.257812 21.417969 123.804688 21.089844 C 124.347656 20.765625 124.792969 20.21875 125.128906 19.453125 L 125.753906 19.453125 C 125.582031 19.933594 125.351562 20.390625 125.050781 20.824219 C 124.753906 21.261719 124.402344 21.648438 124 21.976562 C 123.59375 22.3125 123.160156 22.574219 122.691406 22.769531 C 122.226562 22.964844 121.742188 23.0625 121.25 23.0625 C 120.796875 23.0625 120.355469 22.984375 119.933594 22.828125 C 119.511719 22.671875 119.136719 22.417969 118.8125 22.058594 C 118.488281 21.699219 118.226562 21.234375 118.023438 20.660156 C 117.820312 20.089844 117.722656 19.386719 117.722656 18.554688 C 117.722656 18.007812 117.78125 17.414062 117.90625 16.777344 C 118.03125 16.140625 118.238281 15.546875 118.527344 15 C 118.824219 14.457031 119.207031 14 119.679688 13.636719 C 120.15625 13.269531 120.742188 13.089844 121.445312 13.089844 C 121.769531 13.089844 122.085938 13.125 122.386719 13.195312 C 122.695312 13.265625 122.972656 13.398438 123.21875 13.585938 C 123.464844 13.773438 123.664062 14.03125 123.8125 14.359375 C 123.960938 14.683594 124.039062 15.105469 124.039062 15.625 Z M 119.789062 18.28125 C 120.710938 18.136719 121.441406 17.8125 121.980469 17.304688 C 122.519531 16.796875 122.789062 16.171875 122.789062 15.429688 C 122.789062 14.9375 122.707031 14.582031 122.535156 14.367188 C 122.367188 14.152344 122.128906 14.046875 121.816406 14.046875 C 121.476562 14.046875 121.179688 14.175781 120.925781 14.4375 C 120.675781 14.695312 120.464844 15.03125 120.292969 15.4375 C 120.125 15.851562 120 16.304688 119.914062 16.804688 C 119.828125 17.308594 119.789062 17.800781 119.789062 18.28125 Z M 131.207031 15.625 C 131.207031 16.539062 130.832031 17.296875 130.085938 17.910156 C 129.339844 18.523438 128.300781 18.898438 126.976562 19.042969 C 127.027344 19.5625 127.125 19.984375 127.261719 20.3125 C 127.398438 20.636719 127.5625 20.890625 127.757812 21.078125 C 127.953125 21.269531 128.175781 21.398438 128.429688 21.46875 C 128.683594 21.542969 128.945312 21.578125 129.21875 21.578125 C 129.84375 21.578125 130.425781 21.417969 130.972656 21.089844 C 131.519531 20.765625 131.960938 20.21875 132.296875 19.453125 L 132.921875 19.453125 C 132.753906 19.933594 132.519531 20.390625 132.21875 20.824219 C 131.921875 21.261719 131.570312 21.648438 131.167969 21.976562 C 130.765625 22.3125 130.328125 22.574219 129.863281 22.769531 C 129.394531 22.964844 128.914062 23.0625 128.417969 23.0625 C 127.964844 23.0625 127.527344 22.984375 127.105469 22.828125 C 126.683594 22.671875 126.308594 22.417969 125.984375 22.058594 C 125.65625 21.699219 125.394531 21.234375 125.195312 20.660156 C 124.992188 20.089844 124.890625 19.386719 124.890625 18.554688 C 124.890625 18.007812 124.953125 17.414062 125.078125 16.777344 C 125.199219 16.140625 125.410156 15.546875 125.703125 15 C 125.992188 14.457031 126.375 14 126.851562 13.636719 C 127.324219 13.269531 127.914062 13.089844 128.613281 13.089844 C 128.9375 13.089844 129.253906 13.125 129.5625 13.195312 C 129.867188 13.265625 130.140625 13.398438 130.386719 13.585938 C 130.636719 13.773438 130.832031 14.03125 130.984375 14.359375 C 131.132812 14.683594 131.207031 15.105469 131.207031 15.625 Z M 126.957031 18.28125 C 127.878906 18.136719 128.613281 17.8125 129.152344 17.304688 C 129.691406 16.796875 129.960938 16.171875 129.960938 15.429688 C 129.960938 14.9375 129.875 14.582031 129.707031 14.367188 C 129.535156 14.152344 129.296875 14.046875 128.984375 14.046875 C 128.648438 14.046875 128.351562 14.175781 128.097656 14.4375 C 127.84375 14.695312 127.632812 15.03125 127.464844 15.4375 C 127.296875 15.851562 127.167969 16.304688 127.085938 16.804688 C 127 17.308594 126.957031 17.800781 126.957031 18.28125 Z M 132.277344 13.1875 L 134.226562 13.1875 L 134.226562 14.671875 C 134.421875 14.320312 134.621094 14.035156 134.824219 13.820312 C 135.023438 13.605469 135.230469 13.445312 135.4375 13.34375 C 135.644531 13.238281 135.84375 13.167969 136.03125 13.136719 C 136.21875 13.105469 136.398438 13.089844 136.566406 13.089844 C 137.152344 13.089844 137.625 13.199219 137.980469 13.421875 C 138.339844 13.640625 138.605469 13.925781 138.789062 14.269531 C 138.972656 14.613281 139.09375 14.992188 139.152344 15.398438 C 139.207031 15.8125 139.238281 16.207031 139.238281 16.582031 C 139.238281 16.816406 139.230469 17.074219 139.21875 17.351562 C 139.203125 17.632812 139.191406 17.917969 139.179688 18.210938 C 139.164062 18.503906 139.152344 18.796875 139.140625 19.089844 C 139.128906 19.382812 139.121094 19.652344 139.121094 19.902344 C 139.121094 20.003906 139.128906 20.152344 139.140625 20.339844 C 139.152344 20.527344 139.183594 20.714844 139.238281 20.894531 C 139.289062 21.078125 139.375 21.238281 139.492188 21.371094 C 139.609375 21.511719 139.777344 21.578125 139.996094 21.578125 C 140.296875 21.578125 140.566406 21.410156 140.808594 21.070312 C 141.046875 20.734375 141.246094 20.195312 141.402344 19.453125 L 142.121094 19.453125 C 141.980469 20.273438 141.796875 20.917969 141.578125 21.390625 C 141.355469 21.867188 141.121094 22.230469 140.875 22.476562 C 140.628906 22.722656 140.382812 22.882812 140.132812 22.957031 C 139.886719 23.027344 139.660156 23.0625 139.453125 23.0625 C 139.035156 23.0625 138.683594 22.980469 138.398438 22.816406 C 138.113281 22.65625 137.878906 22.4375 137.699219 22.164062 C 137.515625 21.890625 137.382812 21.574219 137.300781 21.207031 C 137.214844 20.84375 137.171875 20.46875 137.171875 20.078125 C 137.171875 19.960938 137.175781 19.742188 137.183594 19.421875 C 137.1875 19.101562 137.195312 18.761719 137.203125 18.398438 C 137.207031 18.035156 137.214844 17.6875 137.222656 17.363281 C 137.226562 17.039062 137.230469 16.808594 137.230469 16.679688 C 137.230469 16.265625 137.199219 15.917969 137.132812 15.644531 C 137.066406 15.371094 136.976562 15.15625 136.859375 15 C 136.742188 14.84375 136.609375 14.734375 136.460938 14.671875 C 136.3125 14.605469 136.152344 14.574219 135.980469 14.574219 C 135.578125 14.574219 135.234375 14.734375 134.941406 15.058594 C 134.648438 15.386719 134.410156 15.933594 134.226562 16.699219 L 134.226562 22.945312 L 132.277344 22.945312 Z M 149.394531 10.433594 L 151.5 10.140625 L 151.5 21.421875 C 151.746094 21.605469 151.980469 21.734375 152.207031 21.8125 C 152.4375 21.890625 152.65625 21.929688 152.863281 21.929688 C 153.371094 21.929688 153.792969 21.746094 154.136719 21.371094 C 154.484375 21.003906 154.765625 20.523438 154.988281 19.929688 C 155.207031 19.335938 155.367188 18.675781 155.460938 17.949219 C 155.5625 17.21875 155.609375 16.503906 155.609375 15.800781 C 155.609375 14.59375 155.527344 13.558594 155.359375 12.699219 C 155.1875 11.839844 154.914062 11.136719 154.539062 10.589844 C 154.160156 10.042969 153.675781 9.644531 153.078125 9.386719 C 152.480469 9.136719 151.757812 9.007812 150.914062 9.007812 C 150.328125 9.007812 149.769531 9.101562 149.238281 9.28125 C 148.703125 9.464844 148.238281 9.726562 147.832031 10.070312 C 147.429688 10.417969 147.109375 10.839844 146.867188 11.339844 C 146.628906 11.84375 146.507812 12.414062 146.507812 13.050781 C 146.507812 13.425781 146.550781 13.746094 146.632812 14.007812 C 146.71875 14.265625 146.816406 14.480469 146.925781 14.652344 C 147.035156 14.820312 147.152344 14.953125 147.277344 15.046875 C 147.402344 15.148438 147.503906 15.222656 147.582031 15.273438 C 146.789062 15.273438 146.164062 15.09375 145.707031 14.730469 C 145.253906 14.363281 145.027344 13.753906 145.027344 12.894531 C 145.027344 12.296875 145.183594 11.714844 145.496094 11.15625 C 145.804688 10.597656 146.238281 10.109375 146.789062 9.691406 C 147.34375 9.277344 147.992188 8.941406 148.738281 8.691406 C 149.488281 8.433594 150.300781 8.308594 151.1875 8.308594 C 152.433594 8.308594 153.484375 8.519531 154.34375 8.9375 C 155.203125 9.363281 155.898438 9.921875 156.429688 10.617188 C 156.960938 11.316406 157.347656 12.113281 157.578125 13.011719 C 157.8125 13.910156 157.929688 14.832031 157.929688 15.78125 C 157.929688 16.707031 157.835938 17.609375 157.644531 18.496094 C 157.457031 19.378906 157.199219 20.171875 156.867188 20.863281 C 156.535156 21.5625 156.144531 22.125 155.6875 22.554688 C 155.234375 22.984375 154.734375 23.199219 154.1875 23.199219 C 153.796875 23.199219 153.382812 23.109375 152.941406 22.925781 C 152.5 22.742188 152.019531 22.457031 151.5 22.066406 L 151.5 22.945312 L 149.394531 22.945312 Z M 159.328125 13.1875 L 161.277344 13.1875 L 161.277344 19.824219 C 161.277344 19.953125 161.285156 20.117188 161.296875 20.3125 C 161.3125 20.507812 161.347656 20.695312 161.40625 20.882812 C 161.464844 21.074219 161.550781 21.238281 161.667969 21.371094 C 161.785156 21.511719 161.949219 21.578125 162.15625 21.578125 C 162.792969 21.578125 163.261719 20.871094 163.558594 19.453125 L 164.28125 19.453125 C 164.136719 20.273438 163.957031 20.917969 163.734375 21.390625 C 163.515625 21.867188 163.28125 22.230469 163.035156 22.476562 C 162.785156 22.722656 162.535156 22.882812 162.273438 22.957031 C 162.011719 23.027344 161.78125 23.0625 161.570312 23.0625 C 161.117188 23.0625 160.746094 22.972656 160.460938 22.796875 C 160.175781 22.621094 159.949219 22.398438 159.777344 22.125 C 159.609375 21.851562 159.492188 21.546875 159.425781 21.207031 C 159.363281 20.871094 159.328125 20.546875 159.328125 20.234375 Z M 158.980469 10.375 C 158.980469 10.023438 159.101562 9.71875 159.347656 9.457031 C 159.597656 9.199219 159.902344 9.066406 160.265625 9.066406 C 160.617188 9.066406 160.921875 9.199219 161.183594 9.457031 C 161.441406 9.71875 161.570312 10.023438 161.570312 10.375 C 161.570312 10.742188 161.441406 11.046875 161.183594 11.292969 C 160.921875 11.539062 160.617188 11.664062 160.265625 11.664062 C 159.902344 11.664062 159.597656 11.539062 159.347656 11.292969 C 159.101562 11.046875 158.980469 10.742188 158.980469 10.375 Z M 170.226562 19.453125 L 171.042969 19.453125 C 170.667969 19.972656 170.28125 20.40625 169.886719 20.746094 C 169.488281 21.09375 169.101562 21.398438 168.726562 21.65625 C 168.582031 21.917969 168.402344 22.136719 168.179688 22.308594 C 167.957031 22.488281 167.722656 22.628906 167.46875 22.738281 C 167.214844 22.851562 166.960938 22.933594 166.710938 22.984375 C 166.457031 23.035156 166.222656 23.0625 166.015625 23.0625 C 165.445312 23.0625 164.972656 22.972656 164.605469 22.789062 C 164.234375 22.605469 163.9375 22.375 163.714844 22.09375 C 163.496094 21.816406 163.339844 21.503906 163.246094 21.15625 C 163.15625 20.8125 163.113281 20.488281 163.113281 20.175781 C 163.113281 19.835938 163.179688 19.539062 163.316406 19.285156 C 163.453125 19.03125 163.617188 18.851562 163.8125 18.75 C 164.152344 17.773438 164.484375 16.804688 164.808594 15.847656 C 165.132812 14.894531 165.347656 13.933594 165.449219 12.972656 L 167.417969 12.582031 C 167.730469 13.816406 167.988281 14.824219 168.191406 15.605469 C 168.390625 16.386719 168.554688 17.046875 168.679688 17.585938 C 168.800781 18.128906 168.890625 18.601562 168.953125 19.011719 C 169.007812 19.421875 169.039062 19.875 169.039062 20.371094 C 169.257812 20.226562 169.464844 20.074219 169.660156 19.910156 C 169.855469 19.746094 170.042969 19.59375 170.226562 19.453125 Z M 166.972656 20.234375 C 166.972656 19.828125 166.949219 19.472656 166.90625 19.160156 C 166.859375 18.847656 166.789062 18.503906 166.699219 18.125 C 166.605469 17.746094 166.492188 17.289062 166.359375 16.746094 C 166.222656 16.207031 166.0625 15.515625 165.878906 14.671875 C 165.800781 15.398438 165.644531 16.09375 165.402344 16.757812 C 165.164062 17.421875 164.945312 18.105469 164.75 18.808594 C 164.867188 18.886719 164.96875 18.992188 165.054688 19.128906 C 165.136719 19.265625 165.175781 19.445312 165.175781 19.667969 C 165.175781 19.914062 165.113281 20.101562 164.984375 20.234375 C 164.851562 20.363281 164.710938 20.429688 164.554688 20.429688 C 164.347656 20.429688 164.171875 20.335938 164.027344 20.15625 C 164.132812 20.609375 164.3125 20.964844 164.574219 21.21875 C 164.832031 21.472656 165.175781 21.597656 165.605469 21.597656 C 166.023438 21.597656 166.355469 21.492188 166.601562 21.273438 C 166.847656 21.0625 166.972656 20.714844 166.972656 20.234375 Z M 175.449219 13.1875 L 177.398438 13.1875 L 177.398438 22.535156 C 177.722656 22.433594 178.011719 22.316406 178.265625 22.183594 C 178.519531 22.054688 178.742188 21.878906 178.925781 21.65625 C 179.117188 21.4375 179.273438 21.148438 179.394531 20.796875 C 179.519531 20.449219 179.613281 20 179.679688 19.453125 L 180.402344 19.453125 C 180.296875 20.140625 180.164062 20.703125 180 21.136719 C 179.839844 21.574219 179.636719 21.925781 179.394531 22.191406 C 179.15625 22.460938 178.871094 22.667969 178.539062 22.816406 C 178.207031 22.96875 177.828125 23.109375 177.398438 23.238281 L 177.398438 24.488281 C 177.398438 25.097656 177.335938 25.617188 177.203125 26.042969 C 177.074219 26.464844 176.894531 26.808594 176.667969 27.074219 C 176.441406 27.339844 176.179688 27.53125 175.886719 27.648438 C 175.59375 27.765625 175.289062 27.824219 174.960938 27.824219 C 174.3125 27.824219 173.804688 27.640625 173.441406 27.269531 C 173.078125 26.898438 172.898438 26.445312 172.898438 25.914062 C 172.898438 25.574219 172.972656 25.269531 173.117188 24.996094 C 173.269531 24.722656 173.464844 24.472656 173.703125 24.246094 C 173.945312 24.015625 174.21875 23.816406 174.523438 23.640625 C 174.828125 23.464844 175.136719 23.308594 175.449219 23.179688 L 175.449219 21.5 C 175.203125 21.839844 174.894531 22.121094 174.523438 22.339844 C 174.152344 22.5625 173.734375 22.671875 173.265625 22.671875 C 172.878906 22.671875 172.484375 22.597656 172.085938 22.445312 C 171.691406 22.296875 171.332031 22.054688 171.015625 21.714844 C 170.695312 21.378906 170.4375 20.933594 170.234375 20.390625 C 170.035156 19.84375 169.933594 19.179688 169.933594 18.398438 C 169.933594 17.8125 170 17.207031 170.136719 16.582031 C 170.273438 15.957031 170.492188 15.386719 170.792969 14.871094 C 171.089844 14.359375 171.472656 13.933594 171.941406 13.597656 C 172.410156 13.257812 172.976562 13.089844 173.636719 13.089844 C 173.792969 13.089844 173.957031 13.105469 174.132812 13.136719 C 174.308594 13.167969 174.476562 13.226562 174.640625 13.304688 C 174.804688 13.382812 174.957031 13.488281 175.097656 13.625 C 175.242188 13.761719 175.359375 13.929688 175.449219 14.125 Z M 173.753906 21.1875 C 173.949219 21.1875 174.148438 21.136719 174.347656 21.03125 C 174.550781 20.929688 174.730469 20.785156 174.894531 20.605469 C 175.054688 20.421875 175.191406 20.207031 175.292969 19.960938 C 175.398438 19.710938 175.449219 19.445312 175.449219 19.160156 L 175.449219 15 C 175.359375 14.792969 175.21875 14.601562 175.027344 14.425781 C 174.84375 14.25 174.597656 14.164062 174.300781 14.164062 C 173.882812 14.164062 173.527344 14.296875 173.226562 14.5625 C 172.929688 14.828125 172.6875 15.164062 172.507812 15.566406 C 172.324219 15.972656 172.191406 16.414062 172.105469 16.894531 C 172.023438 17.375 171.980469 17.832031 171.980469 18.261719 C 171.980469 19.316406 172.132812 20.066406 172.4375 20.515625 C 172.742188 20.964844 173.183594 21.1875 173.753906 21.1875 Z M 174.59375 26.808594 C 174.941406 26.808594 175.171875 26.675781 175.28125 26.414062 C 175.394531 26.144531 175.449219 25.78125 175.449219 25.328125 L 175.449219 23.960938 C 174.800781 24.261719 174.339844 24.554688 174.066406 24.851562 C 173.792969 25.140625 173.65625 25.46875 173.65625 25.835938 C 173.65625 26.132812 173.738281 26.371094 173.898438 26.542969 C 174.0625 26.722656 174.292969 26.808594 174.59375 26.808594 Z M 184.300781 13.1875 L 186.25 13.1875 L 186.25 19.824219 C 186.25 19.953125 186.253906 20.117188 186.269531 20.3125 C 186.28125 20.507812 186.316406 20.695312 186.375 20.882812 C 186.433594 21.074219 186.523438 21.238281 186.640625 21.371094 C 186.753906 21.511719 186.917969 21.578125 187.125 21.578125 C 187.761719 21.578125 188.230469 20.871094 188.53125 19.453125 L 189.25 19.453125 C 189.109375 20.273438 188.925781 20.917969 188.703125 21.390625 C 188.484375 21.867188 188.25 22.230469 188.003906 22.476562 C 187.757812 22.722656 187.503906 22.882812 187.242188 22.957031 C 186.984375 23.027344 186.75 23.0625 186.542969 23.0625 C 186.242188 23.0625 185.984375 23.011719 185.769531 22.90625 C 185.554688 22.800781 185.375 22.664062 185.222656 22.496094 C 185.074219 22.328125 184.957031 22.132812 184.863281 21.910156 C 184.773438 21.691406 184.703125 21.460938 184.652344 21.226562 C 184.402344 21.867188 184.078125 22.332031 183.675781 22.621094 C 183.273438 22.914062 182.851562 23.0625 182.410156 23.0625 C 182.03125 23.0625 181.675781 23.011719 181.335938 22.90625 C 181 22.800781 180.707031 22.628906 180.460938 22.386719 C 180.210938 22.148438 180.019531 21.835938 179.875 21.449219 C 179.730469 21.066406 179.660156 20.597656 179.660156 20.039062 L 179.660156 13.1875 L 181.609375 13.1875 L 181.609375 19.824219 C 181.609375 20.460938 181.71875 20.910156 181.941406 21.175781 C 182.160156 21.445312 182.441406 21.578125 182.777344 21.578125 C 182.960938 21.578125 183.144531 21.53125 183.324219 21.429688 C 183.507812 21.335938 183.667969 21.195312 183.8125 21.011719 C 183.957031 20.832031 184.070312 20.609375 184.164062 20.351562 C 184.253906 20.089844 184.300781 19.789062 184.300781 19.453125 Z M 188.527344 13.1875 L 190.476562 13.1875 L 190.476562 19.824219 C 190.476562 19.953125 190.480469 20.117188 190.496094 20.3125 C 190.507812 20.507812 190.542969 20.695312 190.601562 20.882812 C 190.660156 21.074219 190.746094 21.238281 190.863281 21.371094 C 190.980469 21.511719 191.144531 21.578125 191.351562 21.578125 C 191.988281 21.578125 192.457031 20.871094 192.753906 19.453125 L 193.476562 19.453125 C 193.332031 20.273438 193.152344 20.917969 192.929688 21.390625 C 192.710938 21.867188 192.476562 22.230469 192.230469 22.476562 C 191.980469 22.722656 191.730469 22.882812 191.46875 22.957031 C 191.207031 23.027344 190.976562 23.0625 190.765625 23.0625 C 190.3125 23.0625 189.941406 22.972656 189.65625 22.796875 C 189.371094 22.621094 189.144531 22.398438 188.972656 22.125 C 188.804688 21.851562 188.6875 21.546875 188.621094 21.207031 C 188.558594 20.871094 188.527344 20.546875 188.527344 20.234375 Z M 188.175781 10.375 C 188.175781 10.023438 188.296875 9.71875 188.546875 9.457031 C 188.792969 9.199219 189.097656 9.066406 189.460938 9.066406 C 189.8125 9.066406 190.117188 9.199219 190.378906 9.457031 C 190.636719 9.71875 190.765625 10.023438 190.765625 10.375 C 190.765625 10.742188 190.636719 11.046875 190.378906 11.292969 C 190.117188 11.539062 189.8125 11.664062 189.460938 11.664062 C 189.097656 11.664062 188.792969 11.539062 188.546875 11.292969 C 188.296875 11.046875 188.175781 10.742188 188.175781 10.375 Z M 199.421875 19.453125 L 200.242188 19.453125 C 199.863281 19.972656 199.476562 20.40625 199.082031 20.746094 C 198.683594 21.09375 198.296875 21.398438 197.921875 21.65625 C 197.777344 21.917969 197.597656 22.136719 197.375 22.308594 C 197.152344 22.488281 196.917969 22.628906 196.664062 22.738281 C 196.410156 22.851562 196.15625 22.933594 195.90625 22.984375 C 195.652344 23.035156 195.417969 23.0625 195.210938 23.0625 C 194.640625 23.0625 194.167969 22.972656 193.800781 22.789062 C 193.429688 22.605469 193.132812 22.375 192.910156 22.09375 C 192.691406 21.816406 192.535156 21.503906 192.445312 21.15625 C 192.351562 20.8125 192.308594 20.488281 192.308594 20.175781 C 192.308594 19.835938 192.375 19.539062 192.511719 19.285156 C 192.648438 19.03125 192.8125 18.851562 193.007812 18.75 C 193.347656 17.773438 193.679688 16.804688 194.003906 15.847656 C 194.328125 14.894531 194.542969 13.933594 194.644531 12.972656 L 196.613281 12.582031 C 196.925781 13.816406 197.183594 14.824219 197.386719 15.605469 C 197.585938 16.386719 197.75 17.046875 197.875 17.585938 C 197.996094 18.128906 198.085938 18.601562 198.148438 19.011719 C 198.203125 19.421875 198.234375 19.875 198.234375 20.371094 C 198.453125 20.226562 198.660156 20.074219 198.855469 19.910156 C 199.050781 19.746094 199.238281 19.59375 199.421875 19.453125 Z M 196.167969 20.234375 C 196.167969 19.828125 196.144531 19.472656 196.101562 19.160156 C 196.054688 18.847656 195.984375 18.503906 195.894531 18.125 C 195.800781 17.746094 195.691406 17.289062 195.554688 16.746094 C 195.417969 16.207031 195.257812 15.515625 195.074219 14.671875 C 194.996094 15.398438 194.839844 16.09375 194.597656 16.757812 C 194.359375 17.421875 194.140625 18.105469 193.945312 18.808594 C 194.0625 18.886719 194.164062 18.992188 194.25 19.128906 C 194.332031 19.265625 194.375 19.445312 194.375 19.667969 C 194.375 19.914062 194.308594 20.101562 194.179688 20.234375 C 194.046875 20.363281 193.90625 20.429688 193.75 20.429688 C 193.542969 20.429688 193.367188 20.335938 193.222656 20.15625 C 193.328125 20.609375 193.507812 20.964844 193.769531 21.21875 C 194.027344 21.472656 194.375 21.597656 194.800781 21.597656 C 195.21875 21.597656 195.550781 21.492188 195.796875 21.273438 C 196.042969 21.0625 196.167969 20.714844 196.167969 20.234375 Z M 205.503906 15.625 C 205.503906 16.539062 205.128906 17.296875 204.378906 17.910156 C 203.632812 18.523438 202.597656 18.898438 201.273438 19.042969 C 201.324219 19.5625 201.417969 19.984375 201.554688 20.3125 C 201.691406 20.636719 201.859375 20.890625 202.054688 21.078125 C 202.25 21.269531 202.472656 21.398438 202.722656 21.46875 C 202.976562 21.542969 203.242188 21.578125 203.515625 21.578125 C 204.140625 21.578125 204.722656 21.417969 205.269531 21.089844 C 205.816406 20.765625 206.257812 20.21875 206.59375 19.453125 L 207.21875 19.453125 C 207.050781 19.933594 206.816406 20.390625 206.515625 20.824219 C 206.21875 21.261719 205.867188 21.648438 205.464844 21.976562 C 205.0625 22.3125 204.625 22.574219 204.160156 22.769531 C 203.691406 22.964844 203.210938 23.0625 202.714844 23.0625 C 202.261719 23.0625 201.820312 22.984375 201.398438 22.828125 C 200.976562 22.671875 200.605469 22.417969 200.28125 22.058594 C 199.953125 21.699219 199.691406 21.234375 199.488281 20.660156 C 199.289062 20.089844 199.1875 19.386719 199.1875 18.554688 C 199.1875 18.007812 199.25 17.414062 199.371094 16.777344 C 199.496094 16.140625 199.703125 15.546875 199.996094 15 C 200.289062 14.457031 200.671875 14 201.144531 13.636719 C 201.621094 13.269531 202.210938 13.089844 202.910156 13.089844 C 203.234375 13.089844 203.550781 13.125 203.855469 13.195312 C 204.160156 13.265625 204.4375 13.398438 204.683594 13.585938 C 204.929688 13.773438 205.128906 14.03125 205.277344 14.359375 C 205.429688 14.683594 205.503906 15.105469 205.503906 15.625 Z M 201.253906 18.28125 C 202.175781 18.136719 202.90625 17.8125 203.445312 17.304688 C 203.984375 16.796875 204.253906 16.171875 204.253906 15.429688 C 204.253906 14.9375 204.171875 14.582031 204.003906 14.367188 C 203.832031 14.152344 203.59375 14.046875 203.28125 14.046875 C 202.941406 14.046875 202.648438 14.175781 202.390625 14.4375 C 202.140625 14.695312 201.929688 15.03125 201.761719 15.4375 C 201.59375 15.851562 201.464844 16.304688 201.378906 16.804688 C 201.296875 17.308594 201.253906 17.800781 201.253906 18.28125 Z M 213.261719 19.453125 L 214.078125 19.453125 C 213.703125 19.972656 213.316406 20.40625 212.917969 20.746094 C 212.523438 21.09375 212.136719 21.398438 211.761719 21.65625 C 211.617188 21.917969 211.433594 22.136719 211.214844 22.308594 C 210.992188 22.488281 210.753906 22.628906 210.5 22.738281 C 210.25 22.851562 209.996094 22.933594 209.742188 22.984375 C 209.488281 23.035156 209.257812 23.0625 209.050781 23.0625 C 208.480469 23.0625 208.007812 22.972656 207.636719 22.789062 C 207.265625 22.605469 206.972656 22.375 206.75 22.09375 C 206.53125 21.816406 206.375 21.503906 206.28125 21.15625 C 206.191406 20.8125 206.148438 20.488281 206.148438 20.175781 C 206.148438 19.835938 206.214844 19.539062 206.347656 19.285156 C 206.488281 19.03125 206.652344 18.851562 206.847656 18.75 C 207.1875 17.773438 207.515625 16.804688 207.84375 15.847656 C 208.167969 14.894531 208.382812 13.933594 208.484375 12.972656 L 210.453125 12.582031 C 210.765625 13.816406 211.023438 14.824219 211.222656 15.605469 C 211.425781 16.386719 211.585938 17.046875 211.710938 17.585938 C 211.835938 18.128906 211.925781 18.601562 211.984375 19.011719 C 212.042969 19.421875 212.070312 19.875 212.070312 20.371094 C 212.292969 20.226562 212.5 20.074219 212.695312 19.910156 C 212.890625 19.746094 213.078125 19.59375 213.261719 19.453125 Z M 210.007812 20.234375 C 210.007812 19.828125 209.984375 19.472656 209.9375 19.160156 C 209.890625 18.847656 209.824219 18.503906 209.734375 18.125 C 209.640625 17.746094 209.527344 17.289062 209.390625 16.746094 C 209.253906 16.207031 209.097656 15.515625 208.914062 14.671875 C 208.835938 15.398438 208.675781 16.09375 208.433594 16.757812 C 208.195312 17.421875 207.980469 18.105469 207.785156 18.808594 C 207.902344 18.886719 208 18.992188 208.085938 19.128906 C 208.167969 19.265625 208.210938 19.445312 208.210938 19.667969 C 208.210938 19.914062 208.148438 20.101562 208.019531 20.234375 C 207.886719 20.363281 207.746094 20.429688 207.589844 20.429688 C 207.382812 20.429688 207.207031 20.335938 207.0625 20.15625 C 207.167969 20.609375 207.347656 20.964844 207.609375 21.21875 C 207.867188 21.472656 208.210938 21.597656 208.640625 21.597656 C 209.058594 21.597656 209.390625 21.492188 209.636719 21.273438 C 209.882812 21.0625 210.007812 20.714844 210.007812 20.234375 Z M 210.007812 20.234375 "/>
</g>
<g clip-path="url(#clip2)" clip-rule="nonzero">
<path style=" stroke:none;fill-rule:nonzero;fill:rgb(6.666667%,6.666667%,6.666667%);fill-opacity:1;" d="M 71.0625 40.621094 C 71.917969 40.8125 72.589844 41.152344 73.085938 41.644531 C 73.574219 42.136719 73.820312 42.871094 73.820312 43.84375 C 73.820312 45.121094 73.390625 46.074219 72.527344 46.699219 C 71.667969 47.324219 70.496094 47.636719 69.011719 47.636719 L 65.679688 47.636719 L 65.679688 34.390625 L 68.574219 34.390625 C 70.09375 34.390625 71.265625 34.675781 72.097656 35.25 C 72.925781 35.828125 73.339844 36.664062 73.339844 37.761719 C 73.339844 38.503906 73.132812 39.117188 72.71875 39.605469 C 72.304688 40.089844 71.75 40.429688 71.0625 40.621094 Z M 68.820312 36.191406 L 68.113281 36.191406 L 68.113281 39.855469 L 68.9375 39.855469 C 70.226562 39.855469 70.871094 39.226562 70.871094 37.972656 C 70.871094 37.347656 70.707031 36.894531 70.382812 36.613281 C 70.058594 36.332031 69.535156 36.191406 68.820312 36.191406 Z M 69.03125 45.796875 C 69.773438 45.796875 70.335938 45.640625 70.71875 45.324219 C 71.101562 45.015625 71.292969 44.488281 71.292969 43.746094 C 71.292969 43.003906 71.113281 42.457031 70.757812 42.105469 C 70.398438 41.753906 69.84375 41.578125 69.089844 41.578125 L 68.113281 41.578125 L 68.113281 45.796875 Z M 82.492188 37.496094 L 79.8125 47.675781 C 79.480469 48.902344 78.945312 49.867188 78.203125 50.570312 C 77.464844 51.273438 76.476562 51.683594 75.238281 51.800781 L 74.96875 50.132812 C 75.773438 49.964844 76.375 49.699219 76.777344 49.332031 C 77.179688 48.96875 77.496094 48.40625 77.726562 47.636719 L 76.84375 47.636719 L 74.277344 37.496094 L 76.671875 37.496094 L 78.359375 46.066406 L 80.15625 37.496094 Z M 90.378906 34.390625 C 91.492188 34.390625 92.453125 34.558594 93.261719 34.894531 C 94.074219 35.234375 94.730469 35.886719 95.234375 36.851562 C 95.738281 37.816406 95.992188 39.183594 95.992188 40.945312 C 95.992188 43.4375 95.496094 45.175781 94.507812 46.160156 C 93.515625 47.144531 92.222656 47.636719 90.628906 47.636719 L 87.429688 47.636719 L 87.429688 34.390625 Z M 90.742188 36.210938 L 89.863281 36.210938 L 89.863281 45.816406 L 90.761719 45.816406 C 91.335938 45.816406 91.820312 45.683594 92.210938 45.414062 C 92.597656 45.144531 92.90625 44.652344 93.128906 43.9375 C 93.351562 43.222656 93.460938 42.226562 93.460938 40.945312 C 93.460938 39.644531 93.34375 38.644531 93.109375 37.957031 C 92.871094 37.265625 92.558594 36.800781 92.171875 36.5625 C 91.78125 36.328125 91.304688 36.210938 90.742188 36.210938 Z M 104.222656 45.183594 C 104.222656 45.515625 104.269531 45.761719 104.359375 45.921875 C 104.449219 46.082031 104.59375 46.214844 104.796875 46.316406 L 104.320312 47.886719 C 103.796875 47.824219 103.378906 47.683594 103.066406 47.464844 C 102.753906 47.25 102.519531 46.917969 102.367188 46.46875 C 101.78125 47.441406 100.957031 47.925781 99.898438 47.925781 C 99.054688 47.925781 98.382812 47.640625 97.886719 47.070312 C 97.386719 46.503906 97.140625 45.746094 97.140625 44.800781 C 97.140625 43.703125 97.480469 42.863281 98.164062 42.289062 C 98.847656 41.714844 99.839844 41.425781 101.140625 41.425781 L 101.925781 41.425781 L 101.925781 40.714844 C 101.925781 40.078125 101.816406 39.625 101.59375 39.363281 C 101.367188 39.101562 101.007812 38.972656 100.507812 38.972656 C 99.910156 38.972656 99.164062 39.136719 98.269531 39.46875 L 97.734375 37.9375 C 98.242188 37.707031 98.773438 37.53125 99.320312 37.40625 C 99.871094 37.285156 100.394531 37.226562 100.890625 37.226562 C 103.113281 37.226562 104.222656 38.351562 104.222656 40.601562 Z M 100.527344 46.21875 C 101.140625 46.21875 101.605469 45.796875 101.925781 44.953125 L 101.925781 42.824219 L 101.371094 42.824219 C 100.71875 42.824219 100.246094 42.972656 99.945312 43.265625 C 99.644531 43.5625 99.496094 44.015625 99.496094 44.628906 C 99.496094 45.152344 99.582031 45.546875 99.761719 45.816406 C 99.941406 46.085938 100.195312 46.21875 100.527344 46.21875 Z M 110.90625 37.246094 C 111.199219 37.246094 111.460938 37.289062 111.691406 37.378906 L 111.308594 39.644531 C 111.054688 39.578125 110.816406 39.546875 110.601562 39.546875 C 110.117188 39.546875 109.734375 39.757812 109.453125 40.179688 C 109.171875 40.601562 108.953125 41.226562 108.800781 42.058594 L 108.800781 47.636719 L 106.445312 47.636719 L 106.445312 37.496094 L 108.496094 37.496094 L 108.667969 39.257812 C 109.140625 37.917969 109.886719 37.246094 110.90625 37.246094 Z M 119.257812 45.183594 C 119.257812 45.515625 119.300781 45.761719 119.390625 45.921875 C 119.480469 46.082031 119.625 46.214844 119.832031 46.316406 L 119.351562 47.886719 C 118.828125 47.824219 118.410156 47.683594 118.097656 47.464844 C 117.785156 47.25 117.550781 46.917969 117.398438 46.46875 C 116.8125 47.441406 115.988281 47.925781 114.929688 47.925781 C 114.085938 47.925781 113.414062 47.640625 112.917969 47.070312 C 112.421875 46.503906 112.171875 45.746094 112.171875 44.800781 C 112.171875 43.703125 112.511719 42.863281 113.195312 42.289062 C 113.878906 41.714844 114.871094 41.425781 116.171875 41.425781 L 116.957031 41.425781 L 116.957031 40.714844 C 116.957031 40.078125 116.847656 39.625 116.621094 39.363281 C 116.398438 39.101562 116.039062 38.972656 115.542969 38.972656 C 114.941406 38.972656 114.195312 39.136719 113.300781 39.46875 L 112.765625 37.9375 C 113.273438 37.707031 113.804688 37.53125 114.355469 37.40625 C 114.902344 37.285156 115.425781 37.226562 115.925781 37.226562 C 118.144531 37.226562 119.257812 38.351562 119.257812 40.601562 Z M 115.558594 46.21875 C 116.171875 46.21875 116.640625 45.796875 116.957031 44.953125 L 116.957031 42.824219 L 116.402344 42.824219 C 115.75 42.824219 115.277344 42.972656 114.972656 43.265625 C 114.675781 43.5625 114.527344 44.015625 114.527344 44.628906 C 114.527344 45.152344 114.617188 45.546875 114.792969 45.816406 C 114.972656 46.085938 115.226562 46.21875 115.558594 46.21875 Z M 121.472656 33.429688 L 123.828125 33.179688 L 123.828125 47.636719 L 121.472656 47.636719 Z M 126.644531 37.496094 L 128.941406 37.496094 L 126.261719 41.980469 L 129.171875 47.636719 L 126.644531 47.636719 L 123.925781 42.097656 Z M 134.878906 37.226562 C 135.605469 37.226562 136.179688 37.488281 136.601562 38.011719 C 137.023438 38.535156 137.234375 39.238281 137.234375 40.121094 L 137.234375 47.636719 L 134.878906 47.636719 L 134.878906 40.390625 C 134.878906 39.90625 134.8125 39.554688 134.679688 39.34375 C 134.542969 39.132812 134.347656 39.027344 134.09375 39.027344 C 133.554688 39.027344 133.027344 39.535156 132.503906 40.542969 L 132.503906 47.636719 L 130.148438 47.636719 L 130.148438 33.449219 L 132.503906 33.199219 L 132.503906 38.703125 C 132.824219 38.203125 133.171875 37.832031 133.550781 37.589844 C 133.925781 37.347656 134.367188 37.226562 134.878906 37.226562 Z M 142.171875 37.226562 C 143.375 37.226562 144.386719 37.621094 145.21875 38.414062 L 144.316406 39.699219 C 143.960938 39.445312 143.621094 39.253906 143.304688 39.125 C 142.984375 38.996094 142.660156 38.933594 142.328125 38.933594 C 141.957031 38.933594 141.664062 39.03125 141.453125 39.226562 C 141.246094 39.429688 141.140625 39.699219 141.140625 40.046875 C 141.140625 40.390625 141.257812 40.667969 141.492188 40.878906 C 141.730469 41.089844 142.207031 41.335938 142.921875 41.617188 C 143.800781 41.960938 144.453125 42.371094 144.875 42.84375 C 145.292969 43.316406 145.503906 43.949219 145.503906 44.742188 C 145.503906 45.726562 145.160156 46.503906 144.472656 47.070312 C 143.78125 47.640625 142.90625 47.925781 141.847656 47.925781 C 141.160156 47.925781 140.523438 47.800781 139.941406 47.550781 C 139.359375 47.300781 138.855469 46.953125 138.421875 46.507812 L 139.570312 45.242188 C 140.285156 45.867188 141.011719 46.179688 141.753906 46.179688 C 142.171875 46.179688 142.503906 46.070312 142.746094 45.847656 C 142.992188 45.621094 143.113281 45.3125 143.113281 44.914062 C 143.113281 44.621094 143.0625 44.382812 142.957031 44.199219 C 142.855469 44.011719 142.679688 43.839844 142.421875 43.675781 C 142.167969 43.519531 141.785156 43.34375 141.273438 43.152344 C 140.394531 42.804688 139.761719 42.402344 139.386719 41.945312 C 139.011719 41.484375 138.824219 40.894531 138.824219 40.179688 C 138.824219 39.324219 139.125 38.617188 139.730469 38.058594 C 140.335938 37.503906 141.152344 37.226562 142.171875 37.226562 Z M 151.710938 37.226562 C 152.4375 37.226562 153.011719 37.488281 153.433594 38.011719 C 153.855469 38.535156 154.066406 39.238281 154.066406 40.121094 L 154.066406 47.636719 L 151.710938 47.636719 L 151.710938 40.390625 C 151.710938 39.90625 151.640625 39.554688 151.507812 39.34375 C 151.375 39.132812 151.179688 39.027344 150.925781 39.027344 C 150.386719 39.027344 149.859375 39.535156 149.335938 40.542969 L 149.335938 47.636719 L 146.980469 47.636719 L 146.980469 33.449219 L 149.335938 33.199219 L 149.335938 38.703125 C 149.65625 38.203125 150 37.832031 150.375 37.589844 C 150.753906 37.347656 151.199219 37.226562 151.710938 37.226562 Z M 162.660156 45.183594 C 162.660156 45.515625 162.703125 45.761719 162.792969 45.921875 C 162.882812 46.082031 163.027344 46.214844 163.234375 46.316406 L 162.753906 47.886719 C 162.230469 47.824219 161.8125 47.683594 161.503906 47.464844 C 161.1875 47.25 160.953125 46.917969 160.800781 46.46875 C 160.214844 47.441406 159.390625 47.925781 158.332031 47.925781 C 157.488281 47.925781 156.820312 47.640625 156.320312 47.070312 C 155.824219 46.503906 155.574219 45.746094 155.574219 44.800781 C 155.574219 43.703125 155.917969 42.863281 156.601562 42.289062 C 157.28125 41.714844 158.273438 41.425781 159.574219 41.425781 L 160.359375 41.425781 L 160.359375 40.714844 C 160.359375 40.078125 160.25 39.625 160.027344 39.363281 C 159.804688 39.101562 159.441406 38.972656 158.945312 38.972656 C 158.34375 38.972656 157.597656 39.136719 156.703125 39.46875 L 156.167969 37.9375 C 156.679688 37.707031 157.207031 37.53125 157.757812 37.40625 C 158.304688 37.285156 158.828125 37.226562 159.328125 37.226562 C 161.546875 37.226562 162.660156 38.351562 162.660156 40.601562 Z M 158.964844 46.21875 C 159.574219 46.21875 160.042969 45.796875 160.359375 44.953125 L 160.359375 42.824219 L 159.804688 42.824219 C 159.15625 42.824219 158.679688 42.972656 158.382812 43.265625 C 158.078125 43.5625 157.929688 44.015625 157.929688 44.628906 C 157.929688 45.152344 158.019531 45.546875 158.199219 45.816406 C 158.375 46.085938 158.632812 46.21875 158.964844 46.21875 Z M 169.609375 37.226562 C 170.335938 37.226562 170.914062 37.488281 171.332031 38.011719 C 171.753906 38.535156 171.964844 39.238281 171.964844 40.121094 L 171.964844 47.636719 L 169.609375 47.636719 L 169.609375 40.390625 C 169.609375 39.90625 169.542969 39.554688 169.410156 39.34375 C 169.277344 39.132812 169.082031 39.027344 168.824219 39.027344 C 168.289062 39.027344 167.757812 39.535156 167.234375 40.542969 L 167.234375 47.636719 L 164.878906 47.636719 L 164.878906 33.449219 L 167.234375 33.199219 L 167.234375 38.703125 C 167.554688 38.203125 167.902344 37.832031 168.28125 37.589844 C 168.65625 37.347656 169.097656 37.226562 169.609375 37.226562 Z M 180.351562 47.636719 L 177.921875 47.636719 L 177.921875 34.390625 L 184.316406 34.390625 L 184.046875 36.210938 L 180.351562 36.210938 L 180.351562 40.257812 L 183.570312 40.257812 L 183.570312 42.078125 L 180.351562 42.078125 Z M 185.578125 37.496094 L 187.933594 37.496094 L 187.933594 47.636719 L 185.578125 47.636719 Z M 186.746094 32.433594 C 187.164062 32.433594 187.507812 32.566406 187.769531 32.835938 C 188.03125 33.105469 188.160156 33.449219 188.160156 33.871094 C 188.160156 34.28125 188.03125 34.617188 187.769531 34.886719 C 187.507812 35.15625 187.164062 35.289062 186.746094 35.289062 C 186.324219 35.289062 185.980469 35.15625 185.722656 34.886719 C 185.457031 34.617188 185.328125 34.28125 185.328125 33.871094 C 185.328125 33.449219 185.457031 33.105469 185.722656 32.835938 C 185.980469 32.566406 186.324219 32.433594 186.746094 32.433594 Z M 195.074219 33.179688 L 197.429688 33.429688 L 197.429688 47.636719 L 195.34375 47.636719 L 195.226562 46.46875 C 194.628906 47.441406 193.855469 47.925781 192.910156 47.925781 C 191.863281 47.925781 191.0625 47.457031 190.507812 46.515625 C 189.953125 45.578125 189.675781 44.265625 189.675781 42.578125 C 189.675781 41.503906 189.820312 40.558594 190.105469 39.746094 C 190.394531 38.9375 190.792969 38.3125 191.300781 37.878906 C 191.8125 37.445312 192.398438 37.226562 193.0625 37.226562 C 193.878906 37.226562 194.550781 37.566406 195.074219 38.242188 Z M 193.582031 46.144531 C 193.875 46.144531 194.140625 46.039062 194.378906 45.835938 C 194.613281 45.632812 194.84375 45.335938 195.074219 44.953125 L 195.074219 40.027344 C 194.664062 39.335938 194.199219 38.992188 193.675781 38.992188 C 192.640625 38.992188 192.125 40.179688 192.125 42.558594 C 192.125 43.847656 192.253906 44.769531 192.507812 45.316406 C 192.761719 45.867188 193.121094 46.144531 193.582031 46.144531 Z M 206.085938 45.183594 C 206.085938 45.515625 206.128906 45.761719 206.21875 45.921875 C 206.308594 46.082031 206.453125 46.214844 206.660156 46.316406 L 206.179688 47.886719 C 205.65625 47.824219 205.238281 47.683594 204.925781 47.464844 C 204.613281 47.25 204.378906 46.917969 204.226562 46.46875 C 203.640625 47.441406 202.816406 47.925781 201.757812 47.925781 C 200.914062 47.925781 200.246094 47.640625 199.746094 47.070312 C 199.25 46.503906 199 45.746094 199 44.800781 C 199 43.703125 199.339844 42.863281 200.023438 42.289062 C 200.707031 41.714844 201.699219 41.425781 203 41.425781 L 203.785156 41.425781 L 203.785156 40.714844 C 203.785156 40.078125 203.675781 39.625 203.449219 39.363281 C 203.226562 39.101562 202.867188 38.972656 202.371094 38.972656 C 201.769531 38.972656 201.023438 39.136719 200.128906 39.46875 L 199.59375 37.9375 C 200.105469 37.707031 200.632812 37.53125 201.183594 37.40625 C 201.730469 37.285156 202.253906 37.226562 202.753906 37.226562 C 204.972656 37.226562 206.085938 38.351562 206.085938 40.601562 Z M 202.390625 46.21875 C 203 46.21875 203.46875 45.796875 203.785156 44.953125 L 203.785156 42.824219 L 203.230469 42.824219 C 202.582031 42.824219 202.105469 42.972656 201.804688 43.265625 C 201.503906 43.5625 201.355469 44.015625 201.355469 44.628906 C 201.355469 45.152344 201.445312 45.546875 201.625 45.816406 C 201.800781 46.085938 202.058594 46.21875 202.390625 46.21875 Z M 202.390625 46.21875 "/>
</g>
<g clip-path="url(#clip3)" clip-rule="nonzero">
<path style=" stroke:none;fill-rule:evenodd;fill:rgb(87.058824%,41.960784%,2.352941%);fill-opacity:1;" d="M 35.667969 57.925781 L 34.589844 59.003906 C 34.238281 59.34375 33.820312 59.605469 33.359375 59.769531 C 32.449219 60.066406 31.574219 60.09375 30.738281 59.511719 L 29.40625 58.546875 C 28.96875 58.210938 28.378906 58.15625 27.890625 58.40625 C 26.800781 58.960938 25.59375 59.285156 24.433594 59.769531 C 23.984375 59.933594 23.519531 60.042969 23.046875 60.09375 C 22.605469 60.152344 22.164062 60 21.855469 59.683594 C 21.457031 59.230469 21.050781 58.792969 20.636719 58.378906 L 19.757812 57.441406 C 19.136719 56.902344 18.410156 56.507812 17.621094 56.277344 C 17.054688 56.136719 16.484375 55.953125 15.90625 55.839844 C 14.539062 55.519531 13.210938 55.042969 11.953125 54.421875 C 10.011719 53.589844 8.1875 52.507812 6.527344 51.199219 C 6.460938 51.125 6.375 51.058594 6.273438 51.003906 C 4.824219 49.957031 3.613281 48.617188 2.71875 47.074219 C 2.3125 46.390625 1.914062 45.691406 1.527344 44.972656 C 1.144531 44.316406 0.941406 43.566406 0.945312 42.804688 C 0.933594 42.121094 0.71875 41.441406 0.578125 40.703125 C 0.605469 39.996094 0.691406 39.242188 0.691406 38.492188 C 0.71875 35.65625 1.203125 32.886719 2.007812 30.195312 C 2.789062 27.65625 3.738281 25.171875 5.296875 23 C 6.496094 21.195312 7.898438 19.535156 9.472656 18.050781 C 9.789062 17.757812 10.148438 17.515625 10.535156 17.328125 C 10.917969 17.15625 11.289062 16.902344 11.65625 16.703125 C 12.886719 16.023438 14.09375 15.34375 15.496094 14.988281 C 16.480469 14.726562 17.484375 14.542969 18.496094 14.433594 C 20.722656 14.234375 22.917969 14.476562 25.085938 15 C 25.433594 15.113281 25.789062 15.246094 26.148438 15.398438 C 26.394531 15.492188 26.65625 15.574219 26.941406 15.640625 C 27.109375 15.484375 27.308594 15.355469 27.394531 15.1875 C 28.328125 13.054688 28.6875 10.71875 28.441406 8.40625 C 28.316406 7.613281 28.203125 6.804688 27.917969 6.035156 C 27.863281 5.910156 27.945312 5.726562 27.960938 5.582031 C 30.355469 4.492188 32.421875 2.945312 34.277344 1.128906 C 34.503906 0.902344 34.703125 0.632812 34.957031 0.433594 C 35.257812 0.191406 35.554688 -0.046875 35.964844 0.0078125 C 36.078125 0.0273438 36.179688 0.0585938 36.277344 0.109375 C 37 0.832031 37.820312 1.441406 38.628906 2.066406 C 39.296875 2.632812 39.941406 3.214844 40.554688 3.808594 C 40.742188 4 40.921875 4.207031 41.09375 4.433594 L 41.132812 5.3125 C 40.597656 6.179688 40.144531 6.957031 39.648438 7.726562 C 39.273438 8.347656 38.675781 8.804688 37.976562 9 C 37.367188 9 36.757812 8.816406 36.121094 8.648438 C 35.335938 8.40625 34.679688 7.867188 34.292969 7.144531 C 34.207031 7.015625 34.207031 6.832031 34.164062 6.660156 C 34.546875 6.136719 35.140625 5.867188 35.441406 5.457031 C 35.878906 5.496094 35.992188 5.695312 36.078125 5.894531 C 36.292969 6.40625 36.699219 6.8125 37.210938 7.03125 C 37.847656 6.773438 38.1875 6.222656 38.5 5.78125 C 38.597656 5.300781 38.402344 5.042969 38.160156 4.84375 C 37.359375 4.214844 36.453125 3.734375 35.484375 3.425781 C 34.585938 4.023438 33.878906 4.867188 33.441406 5.851562 C 32.632812 7.570312 32.234375 9.457031 32.28125 11.355469 C 32.246094 12.777344 32.75 14.160156 33.683594 15.230469 C 33.703125 15.246094 33.777344 15.28125 33.910156 15.328125 L 35.128906 14.675781 L 36.433594 14.023438 C 38.542969 12.929688 40.917969 12.445312 43.289062 12.632812 C 44.042969 12.71875 44.800781 12.773438 45.554688 12.804688 C 46.941406 12.859375 48.175781 13.371094 49.394531 13.964844 C 49.476562 14.023438 49.574219 14.078125 49.675781 14.136719 C 51.207031 14.617188 52.296875 15.765625 53.34375 16.929688 C 53.554688 17.1875 53.769531 17.425781 53.996094 17.652344 C 55.03125 18.648438 55.753906 19.839844 56.417969 21.074219 C 57.441406 22.972656 58.402344 24.917969 59.054688 26.972656 C 59.183594 27.386719 59.394531 27.769531 59.535156 28.164062 C 59.832031 29.085938 60.214844 30.007812 60.371094 30.945312 C 60.78125 33.398438 61.121094 35.882812 61.066406 38.363281 C 60.996094 41.484375 60.472656 44.492188 58.882812 47.257812 C 57.695312 49.328125 55.886719 50.972656 53.714844 51.953125 C 51.703125 52.945312 49.550781 53.429688 47.453125 54.082031 C 47.167969 54.164062 46.914062 54.179688 46.671875 54.292969 C 46.054688 54.507812 45.53125 54.925781 45.1875 55.484375 C 44.941406 55.902344 44.6875 56.316406 44.421875 56.734375 C 44.25 57.015625 44.125 57.300781 43.910156 57.554688 C 43.453125 58.175781 42.742188 58.558594 41.96875 58.589844 C 41.433594 58.625 40.894531 58.582031 40.371094 58.464844 C 39.632812 58.277344 38.867188 58.152344 38.160156 57.9375 C 37.34375 57.714844 36.484375 57.710938 35.667969 57.925781 M 35.355469 23.128906 C 35.71875 23.203125 36.09375 23.203125 36.460938 23.128906 C 37.152344 23.042969 37.863281 22.917969 38.527344 22.960938 C 40.46875 23.042969 42.410156 23.128906 44.320312 23.328125 C 45.554688 23.46875 46.800781 23.46875 48.046875 23.457031 C 48.1875 23.457031 48.332031 23.34375 48.472656 23.285156 C 48.609375 22.433594 48.550781 21.558594 48.300781 20.730469 C 48.1875 20.433594 48.003906 20.164062 47.890625 19.953125 C 47.226562 19.695312 46.632812 19.769531 46.050781 19.824219 C 43.855469 20.050781 41.660156 20.378906 39.546875 20.960938 C 38.355469 21.277344 37.207031 21.75 36.132812 22.363281 C 35.808594 22.5625 35.46875 22.730469 35.355469 23.15625 Z M 49.40625 45.386719 C 49.453125 45.367188 49.492188 45.328125 49.519531 45.273438 C 50.242188 44.324219 50.761719 43.238281 51.035156 42.082031 C 51.734375 39.335938 52.402344 36.609375 53.035156 33.894531 C 53.261719 32.847656 53.316406 31.753906 53.445312 30.675781 C 53.457031 30.460938 53.417969 30.25 53.191406 30.136719 C 53.078125 30.164062 52.980469 30.207031 52.90625 30.265625 C 52.019531 31.332031 51.113281 32.398438 50.1875 33.457031 C 49.519531 34.222656 49.023438 35.144531 48.445312 35.964844 C 48.332031 36.097656 48.203125 36.207031 48.0625 36.292969 C 47.636719 35.9375 47.113281 36.320312 46.617188 36.078125 L 45.128906 34.449219 C 44.96875 34.269531 44.769531 34.222656 44.535156 34.308594 C 43.828125 34.917969 44.109375 35.9375 43.597656 36.675781 C 43.429688 36.675781 43.273438 36.703125 43.144531 36.632812 C 42.9375 36.550781 42.753906 36.417969 42.609375 36.25 C 41.253906 35.007812 39.652344 34.074219 37.90625 33.511719 C 37.59375 33.386719 37.265625 33.328125 36.898438 33.570312 C 36.363281 34.65625 35.925781 35.785156 35.582031 36.945312 L 34.5625 37.894531 C 34.148438 37.90625 33.75 37.734375 33.472656 37.425781 C 33.140625 37.078125 32.808594 36.71875 32.480469 36.347656 C 32.195312 36.066406 31.941406 35.808594 31.460938 35.753906 C 31.269531 35.90625 31.097656 36.074219 30.933594 36.265625 L 29.632812 38.121094 C 29.539062 38.332031 29.335938 38.433594 29.023438 38.433594 L 28.074219 37.214844 C 27.691406 36.761719 27.28125 36.320312 26.953125 35.824219 C 26.480469 35.175781 25.832031 34.671875 25.085938 34.378906 C 24.902344 34.433594 24.703125 34.433594 24.601562 34.503906 C 24.027344 34.921875 23.457031 35.332031 22.890625 35.738281 C 22 36.382812 21.207031 37.152344 20.539062 38.023438 C 20.101562 38.097656 19.777344 38 19.558594 37.726562 C 19.429688 37.574219 19.308594 37.398438 19.207031 37.199219 C 18.914062 36.710938 18.507812 36.300781 18.015625 36.007812 C 17.695312 36.007812 17.511719 36.121094 17.464844 36.347656 C 17.273438 36.972656 17.082031 37.59375 16.882812 38.207031 C 16.714844 38.703125 16.359375 39.015625 15.777344 39.015625 L 15.308594 38.605469 C 14.785156 37.964844 14.332031 37.300781 13.78125 36.703125 C 13.1875 36.078125 12.433594 35.625 11.839844 34.972656 C 10.972656 34.027344 10.078125 33.097656 9.164062 32.179688 C 8.878906 31.910156 8.667969 31.597656 8.257812 31.570312 C 8.113281 31.617188 8.03125 31.679688 8 31.753906 C 7.910156 31.945312 7.859375 32.152344 7.859375 32.363281 L 8.296875 37.371094 C 8.34375 37.644531 8.410156 37.90625 8.496094 38.152344 L 8.9375 39.710938 C 9.261719 41.042969 9.871094 42.265625 10.480469 43.441406 C 10.988281 44.40625 11.585938 45.3125 12.136719 46.222656 L 12.972656 47.429688 C 13.101562 47.582031 13.300781 47.683594 13.441406 47.796875 C 13.667969 47.710938 13.851562 47.695312 13.964844 47.582031 C 14.617188 46.875 15.4375 46.335938 15.976562 45.511719 C 16.222656 45.132812 16.570312 45.078125 17.023438 45.34375 C 17.28125 45.757812 17.566406 46.195312 17.890625 46.648438 C 18.910156 48.09375 19.953125 49.535156 21.019531 50.972656 C 21.21875 51.285156 21.472656 51.597656 21.96875 51.625 C 22.859375 50.929688 22.890625 49.625 23.683594 48.847656 C 23.824219 48.800781 23.9375 48.769531 24.023438 48.761719 C 24.183594 48.78125 24.34375 48.828125 24.488281 48.902344 C 25.082031 49.296875 25.597656 49.796875 26.003906 50.378906 C 26.34375 50.90625 26.703125 51.441406 27.082031 51.980469 C 27.429688 52.511719 27.941406 52.910156 28.542969 53.117188 C 28.9375 53.0625 29.292969 52.847656 29.519531 52.519531 C 29.929688 51.953125 30.296875 51.328125 30.738281 50.789062 C 31.246094 50.234375 31.640625 49.582031 31.898438 48.875 C 31.925781 48.761719 32.125 48.71875 32.28125 48.605469 C 32.703125 49.730469 33.328125 50.769531 34.121094 51.667969 C 34.335938 51.894531 34.800781 51.910156 35.015625 51.699219 C 35.175781 51.566406 35.324219 51.417969 35.453125 51.257812 C 36.152344 50.285156 36.851562 49.320312 37.550781 48.363281 C 37.9375 47.84375 38.335938 47.332031 38.742188 46.832031 C 38.882812 46.675781 39.066406 46.546875 39.390625 46.691406 C 39.882812 47.308594 40.214844 48.03125 40.371094 48.804688 L 40.753906 50.363281 C 40.808594 50.503906 40.949219 50.621094 41.050781 50.746094 C 41.21875 50.71875 41.402344 50.734375 41.503906 50.632812 C 41.855469 50.320312 42.269531 50.023438 42.523438 49.625 C 43.484375 48.300781 44.355469 46.945312 45.128906 45.554688 C 45.484375 44.890625 45.808594 44.195312 46.292969 43.695312 C 46.894531 43.460938 47.324219 43.601562 47.582031 44.121094 C 47.820312 44.578125 47.863281 45.15625 48.273438 45.511719 C 48.691406 45.636719 49.066406 45.59375 49.40625 45.386719 M 27.351562 24.433594 C 26.789062 23.933594 26.105469 23.589844 25.367188 23.441406 C 23.800781 23.042969 22.222656 22.648438 20.636719 22.25 C 20.027344 22.09375 19.390625 21.953125 18.78125 21.710938 C 17.066406 21.0625 15.242188 20.753906 13.414062 20.804688 C 13.128906 20.804688 12.859375 20.773438 12.546875 21.03125 C 12.503906 21.128906 12.363281 21.3125 12.320312 21.511719 C 12.074219 22.515625 11.847656 23.511719 11.640625 24.503906 C 11.589844 24.824219 11.578125 25.148438 11.597656 25.46875 C 11.597656 25.597656 11.769531 25.710938 11.882812 25.867188 L 12.503906 25.652344 C 13.574219 25.277344 14.679688 25.03125 15.804688 24.917969 C 16.875 24.792969 17.945312 24.691406 19.023438 24.605469 C 20.210938 24.492188 21.386719 24.308594 22.578125 24.492188 C 23.804688 24.671875 25.042969 24.742188 26.289062 24.703125 C 26.601562 24.714844 26.914062 24.71875 27.222656 24.71875 C 27.265625 24.703125 27.308594 24.535156 27.351562 24.433594 M 33.796875 28.308594 C 33.769531 28.152344 33.796875 28.007812 33.726562 27.964844 C 33.253906 27.625 32.777344 27.285156 32.296875 26.945312 C 31.839844 26.660156 31.304688 26.523438 30.765625 26.5625 C 30.011719 26.570312 29.289062 26.851562 28.726562 27.355469 L 27.632812 28.320312 C 27.578125 28.363281 27.605469 28.503906 27.605469 28.589844 C 27.699219 28.648438 27.796875 28.683594 27.890625 28.703125 L 33.1875 28.421875 C 33.398438 28.421875 33.585938 28.335938 33.796875 28.308594 "/>
</g>
</g>
</svg>
